<mxfile host="Electron" agent="Mozilla/5.0 (Macintosh; Intel Mac OS X 10_15_7) AppleWebKit/537.36 (KHTML, like Gecko) draw.io/24.7.17 Chrome/128.0.6613.36 Electron/32.0.1 Safari/537.36" version="24.7.17">
  <diagram name="Page-1" id="tBIAlemMxgHySIvlNtww">
    <mxGraphModel dx="1912" dy="1139" grid="1" gridSize="10" guides="1" tooltips="1" connect="1" arrows="1" fold="1" page="1" pageScale="1" pageWidth="1920" pageHeight="1200" math="0" shadow="0">
      <root>
        <mxCell id="0" />
        <mxCell id="1" parent="0" />
        <mxCell id="0Ns2KySrUpd4GxgdJG7j-181" value="" style="rounded=0;whiteSpace=wrap;pointerEvents=1;strokeColor=default;align=center;verticalAlign=middle;fontFamily=Helvetica;fontSize=12;fontColor=default;autosize=1;resizable=1;fillColor=none;gradientColor=none;dashed=1;dashPattern=1 1;html=1;perimeterSpacing=1;" vertex="1" parent="1">
          <mxGeometry x="60" y="200" width="90" height="50" as="geometry" />
        </mxCell>
        <mxCell id="0Ns2KySrUpd4GxgdJG7j-170" value="" style="rounded=0;whiteSpace=wrap;html=1;pointerEvents=1;strokeColor=default;align=center;verticalAlign=middle;fontFamily=Helvetica;fontSize=12;fontColor=default;autosize=1;resizable=1;fillColor=none;gradientColor=none;dashed=1;dashPattern=1 1;" vertex="1" parent="1">
          <mxGeometry x="60" y="100" width="172" height="90" as="geometry" />
        </mxCell>
        <mxCell id="0Ns2KySrUpd4GxgdJG7j-2" style="edgeStyle=orthogonalEdgeStyle;rounded=0;orthogonalLoop=1;jettySize=auto;html=1;exitX=0.5;exitY=0;exitDx=0;exitDy=0;endSize=4;" edge="1" parent="1" source="0Ns2KySrUpd4GxgdJG7j-1">
          <mxGeometry relative="1" as="geometry">
            <mxPoint x="100" y="450" as="targetPoint" />
            <Array as="points">
              <mxPoint x="580" y="280" />
              <mxPoint x="580" y="510" />
              <mxPoint x="80" y="510" />
            </Array>
          </mxGeometry>
        </mxCell>
        <mxCell id="0Ns2KySrUpd4GxgdJG7j-1" value="" style="shape=trapezoid;perimeter=trapezoidPerimeter;whiteSpace=wrap;html=1;fixedSize=1;rotation=90;" vertex="1" parent="1">
          <mxGeometry x="350" y="250" width="320" height="60" as="geometry" />
        </mxCell>
        <mxCell id="0Ns2KySrUpd4GxgdJG7j-3" value="next_state" style="text;html=1;align=center;verticalAlign=middle;resizable=0;points=[];autosize=1;strokeColor=none;fillColor=none;fontFamily=Helvetica;fontSize=11;fontColor=#009900;labelBackgroundColor=default;" vertex="1" parent="1">
          <mxGeometry x="535" y="255" width="70" height="30" as="geometry" />
        </mxCell>
        <mxCell id="0Ns2KySrUpd4GxgdJG7j-4" value="" style="shape=trapezoid;perimeter=trapezoidPerimeter;whiteSpace=wrap;html=1;fixedSize=1;rotation=90;" vertex="1" parent="1">
          <mxGeometry x="390" y="140" width="80" height="40" as="geometry" />
        </mxCell>
        <mxCell id="0Ns2KySrUpd4GxgdJG7j-5" value="" style="endArrow=classic;html=1;rounded=0;strokeColor=default;align=center;verticalAlign=middle;fontFamily=Helvetica;fontSize=11;fontColor=default;labelBackgroundColor=default;edgeStyle=orthogonalEdgeStyle;endSize=4;entryX=0.107;entryY=1;entryDx=0;entryDy=0;entryPerimeter=0;" edge="1" parent="1">
          <mxGeometry width="50" height="50" relative="1" as="geometry">
            <mxPoint x="450" y="160.04" as="sourcePoint" />
            <mxPoint x="480" y="159.99999999999997" as="targetPoint" />
            <Array as="points">
              <mxPoint x="450" y="160.04" />
            </Array>
          </mxGeometry>
        </mxCell>
        <mxCell id="0Ns2KySrUpd4GxgdJG7j-7" value="" style="shape=trapezoid;perimeter=trapezoidPerimeter;whiteSpace=wrap;html=1;fixedSize=1;rotation=90;" vertex="1" parent="1">
          <mxGeometry x="390" y="240" width="80" height="40" as="geometry" />
        </mxCell>
        <mxCell id="0Ns2KySrUpd4GxgdJG7j-8" value="" style="endArrow=classic;html=1;rounded=0;strokeColor=default;align=center;verticalAlign=middle;fontFamily=Helvetica;fontSize=11;fontColor=default;labelBackgroundColor=default;edgeStyle=orthogonalEdgeStyle;endSize=4;entryX=0.107;entryY=1;entryDx=0;entryDy=0;entryPerimeter=0;" edge="1" parent="1">
          <mxGeometry width="50" height="50" relative="1" as="geometry">
            <mxPoint x="450" y="260.03999999999996" as="sourcePoint" />
            <mxPoint x="480" y="260" as="targetPoint" />
            <Array as="points">
              <mxPoint x="450" y="260.03999999999996" />
            </Array>
          </mxGeometry>
        </mxCell>
        <mxCell id="0Ns2KySrUpd4GxgdJG7j-9" value="" style="shape=trapezoid;perimeter=trapezoidPerimeter;whiteSpace=wrap;html=1;fixedSize=1;rotation=90;" vertex="1" parent="1">
          <mxGeometry x="390" y="340" width="80" height="40" as="geometry" />
        </mxCell>
        <mxCell id="0Ns2KySrUpd4GxgdJG7j-10" value="" style="endArrow=classic;html=1;rounded=0;strokeColor=default;align=center;verticalAlign=middle;fontFamily=Helvetica;fontSize=11;fontColor=default;labelBackgroundColor=default;edgeStyle=orthogonalEdgeStyle;endSize=4;entryX=0.107;entryY=1;entryDx=0;entryDy=0;entryPerimeter=0;" edge="1" parent="1">
          <mxGeometry width="50" height="50" relative="1" as="geometry">
            <mxPoint x="450" y="360.03999999999996" as="sourcePoint" />
            <mxPoint x="480" y="360" as="targetPoint" />
            <Array as="points">
              <mxPoint x="450" y="360.03999999999996" />
            </Array>
          </mxGeometry>
        </mxCell>
        <mxCell id="0Ns2KySrUpd4GxgdJG7j-11" value="" style="endArrow=classic;html=1;rounded=0;strokeColor=default;align=center;verticalAlign=middle;fontFamily=Helvetica;fontSize=11;fontColor=default;labelBackgroundColor=default;edgeStyle=orthogonalEdgeStyle;endSize=4;entryX=0.107;entryY=1;entryDx=0;entryDy=0;entryPerimeter=0;" edge="1" parent="1">
          <mxGeometry width="50" height="50" relative="1" as="geometry">
            <mxPoint x="460" y="420" as="sourcePoint" />
            <mxPoint x="480" y="420" as="targetPoint" />
            <Array as="points">
              <mxPoint x="470" y="420" />
              <mxPoint x="470" y="420" />
            </Array>
          </mxGeometry>
        </mxCell>
        <mxCell id="0Ns2KySrUpd4GxgdJG7j-12" value="&lt;font color=&quot;#ff8000&quot;&gt;WAIT&lt;/font&gt;" style="text;html=1;align=center;verticalAlign=middle;resizable=0;points=[];autosize=1;strokeColor=none;fillColor=none;fontFamily=Helvetica;fontSize=11;fontColor=default;labelBackgroundColor=default;" vertex="1" parent="1">
          <mxGeometry x="419" y="405" width="50" height="30" as="geometry" />
        </mxCell>
        <mxCell id="0Ns2KySrUpd4GxgdJG7j-13" value="0" style="text;html=1;align=center;verticalAlign=middle;resizable=0;points=[];autosize=1;strokeColor=none;fillColor=none;fontFamily=Helvetica;fontSize=11;fontColor=#999999;labelBackgroundColor=default;rounded=0;imageWidth=12;imageHeight=1;connectable=0;allowArrows=0;" vertex="1" parent="1">
          <mxGeometry x="401" y="125" width="30" height="30" as="geometry" />
        </mxCell>
        <mxCell id="0Ns2KySrUpd4GxgdJG7j-15" value="1" style="text;html=1;align=center;verticalAlign=middle;resizable=0;points=[];autosize=1;strokeColor=none;fillColor=none;fontFamily=Helvetica;fontSize=11;fontColor=#999999;labelBackgroundColor=default;rounded=0;imageWidth=12;imageHeight=1;connectable=0;allowArrows=0;" vertex="1" parent="1">
          <mxGeometry x="401" y="165" width="30" height="30" as="geometry" />
        </mxCell>
        <mxCell id="0Ns2KySrUpd4GxgdJG7j-16" value="0" style="text;html=1;align=center;verticalAlign=middle;resizable=0;points=[];autosize=1;strokeColor=none;fillColor=none;fontFamily=Helvetica;fontSize=11;fontColor=#999999;labelBackgroundColor=default;rounded=0;imageWidth=12;imageHeight=1;connectable=0;allowArrows=0;" vertex="1" parent="1">
          <mxGeometry x="401" y="225" width="30" height="30" as="geometry" />
        </mxCell>
        <mxCell id="0Ns2KySrUpd4GxgdJG7j-17" value="1" style="text;html=1;align=center;verticalAlign=middle;resizable=0;points=[];autosize=1;strokeColor=none;fillColor=none;fontFamily=Helvetica;fontSize=11;fontColor=#999999;labelBackgroundColor=default;rounded=0;imageWidth=12;imageHeight=1;connectable=0;allowArrows=0;" vertex="1" parent="1">
          <mxGeometry x="401" y="265" width="30" height="30" as="geometry" />
        </mxCell>
        <mxCell id="0Ns2KySrUpd4GxgdJG7j-18" value="0" style="text;html=1;align=center;verticalAlign=middle;resizable=0;points=[];autosize=1;strokeColor=none;fillColor=none;fontFamily=Helvetica;fontSize=11;fontColor=#999999;labelBackgroundColor=default;rounded=0;imageWidth=12;imageHeight=1;connectable=0;allowArrows=0;" vertex="1" parent="1">
          <mxGeometry x="401" y="325" width="30" height="30" as="geometry" />
        </mxCell>
        <mxCell id="0Ns2KySrUpd4GxgdJG7j-19" value="1" style="text;html=1;align=center;verticalAlign=middle;resizable=0;points=[];autosize=1;strokeColor=none;fillColor=none;fontFamily=Helvetica;fontSize=11;fontColor=#999999;labelBackgroundColor=default;rounded=0;imageWidth=12;imageHeight=1;connectable=0;allowArrows=0;" vertex="1" parent="1">
          <mxGeometry x="401" y="365" width="30" height="30" as="geometry" />
        </mxCell>
        <mxCell id="0Ns2KySrUpd4GxgdJG7j-20" value="" style="endArrow=classic;html=1;rounded=0;strokeColor=default;align=center;verticalAlign=middle;fontFamily=Helvetica;fontSize=11;fontColor=default;labelBackgroundColor=default;edgeStyle=orthogonalEdgeStyle;endSize=4;" edge="1" parent="1">
          <mxGeometry width="50" height="50" relative="1" as="geometry">
            <mxPoint x="390" y="110" as="sourcePoint" />
            <mxPoint x="430" y="130" as="targetPoint" />
            <Array as="points">
              <mxPoint x="430" y="110" />
            </Array>
          </mxGeometry>
        </mxCell>
        <mxCell id="0Ns2KySrUpd4GxgdJG7j-21" value="start" style="text;html=1;align=center;verticalAlign=middle;resizable=0;points=[];autosize=1;strokeColor=none;fillColor=none;fontFamily=Helvetica;fontSize=11;fontColor=default;labelBackgroundColor=default;" vertex="1" parent="1">
          <mxGeometry x="354" y="95" width="40" height="30" as="geometry" />
        </mxCell>
        <mxCell id="0Ns2KySrUpd4GxgdJG7j-29" style="edgeStyle=orthogonalEdgeStyle;shape=connector;rounded=0;orthogonalLoop=1;jettySize=auto;html=1;exitX=1;exitY=0.5;exitDx=0;exitDy=0;strokeColor=default;align=center;verticalAlign=middle;fontFamily=Helvetica;fontSize=11;fontColor=default;labelBackgroundColor=default;endArrow=classic;endSize=4;" edge="1" parent="1" source="0Ns2KySrUpd4GxgdJG7j-25">
          <mxGeometry relative="1" as="geometry">
            <mxPoint x="430" y="330" as="targetPoint" />
            <Array as="points">
              <mxPoint x="430" y="310" />
            </Array>
          </mxGeometry>
        </mxCell>
        <mxCell id="0Ns2KySrUpd4GxgdJG7j-25" value="&lt;p style=&quot;line-height: 0%;&quot;&gt;&lt;b&gt;DFF&lt;/b&gt;&lt;/p&gt;&lt;p&gt;&lt;/p&gt;" style="rounded=1;whiteSpace=wrap;html=1;" vertex="1" parent="1">
          <mxGeometry x="280" y="280" width="60" height="60" as="geometry" />
        </mxCell>
        <mxCell id="0Ns2KySrUpd4GxgdJG7j-26" value="" style="triangle;whiteSpace=wrap;html=1;rotation=-90;" vertex="1" parent="1">
          <mxGeometry x="306" y="328.5" width="8" height="14.5" as="geometry" />
        </mxCell>
        <mxCell id="0Ns2KySrUpd4GxgdJG7j-27" value="D" style="text;html=1;align=center;verticalAlign=middle;resizable=0;points=[];autosize=1;strokeColor=none;fillColor=none;fontColor=#999999;connectable=0;allowArrows=0;fontSize=11;" vertex="1" parent="1">
          <mxGeometry x="273" y="276" width="30" height="30" as="geometry" />
        </mxCell>
        <mxCell id="0Ns2KySrUpd4GxgdJG7j-28" value="Q" style="text;html=1;align=center;verticalAlign=middle;resizable=0;points=[];autosize=1;strokeColor=none;fillColor=none;fontColor=#999999;connectable=0;allowArrows=0;fontSize=11;" vertex="1" parent="1">
          <mxGeometry x="317" y="276" width="30" height="30" as="geometry" />
        </mxCell>
        <mxCell id="0Ns2KySrUpd4GxgdJG7j-30" value="delay" style="text;html=1;align=center;verticalAlign=middle;resizable=0;points=[];autosize=1;strokeColor=none;fillColor=none;fontFamily=Helvetica;fontSize=11;fontColor=#009900;labelBackgroundColor=default;" vertex="1" parent="1">
          <mxGeometry x="332" y="287" width="50" height="30" as="geometry" />
        </mxCell>
        <mxCell id="0Ns2KySrUpd4GxgdJG7j-33" value="&lt;font color=&quot;#ff8000&quot;&gt;FINISH&lt;/font&gt;" style="text;html=1;align=center;verticalAlign=middle;resizable=0;points=[];autosize=1;strokeColor=none;fillColor=none;fontFamily=Helvetica;fontSize=11;fontColor=default;labelBackgroundColor=default;connectable=0;allowArrows=0;" vertex="1" parent="1">
          <mxGeometry x="339" y="325" width="60" height="30" as="geometry" />
        </mxCell>
        <mxCell id="0Ns2KySrUpd4GxgdJG7j-38" value="" style="endArrow=classic;html=1;rounded=0;strokeColor=default;align=center;verticalAlign=middle;fontFamily=Helvetica;fontSize=11;fontColor=default;labelBackgroundColor=default;edgeStyle=orthogonalEdgeStyle;endSize=4;entryX=0.107;entryY=1;entryDx=0;entryDy=0;entryPerimeter=0;" edge="1" parent="1">
          <mxGeometry width="50" height="50" relative="1" as="geometry">
            <mxPoint x="390" y="340" as="sourcePoint" />
            <mxPoint x="410" y="340" as="targetPoint" />
            <Array as="points">
              <mxPoint x="400" y="340" />
              <mxPoint x="400" y="340" />
            </Array>
          </mxGeometry>
        </mxCell>
        <mxCell id="0Ns2KySrUpd4GxgdJG7j-39" value="" style="endArrow=classic;html=1;rounded=0;strokeColor=default;align=center;verticalAlign=middle;fontFamily=Helvetica;fontSize=11;fontColor=default;labelBackgroundColor=default;edgeStyle=orthogonalEdgeStyle;endSize=4;entryX=0.107;entryY=1;entryDx=0;entryDy=0;entryPerimeter=0;" edge="1" parent="1">
          <mxGeometry width="50" height="50" relative="1" as="geometry">
            <mxPoint x="390" y="380" as="sourcePoint" />
            <mxPoint x="410" y="380" as="targetPoint" />
            <Array as="points">
              <mxPoint x="400" y="380" />
              <mxPoint x="400" y="380" />
            </Array>
          </mxGeometry>
        </mxCell>
        <mxCell id="0Ns2KySrUpd4GxgdJG7j-40" value="&lt;font color=&quot;#ff8000&quot;&gt;WAIT&lt;/font&gt;" style="text;html=1;align=center;verticalAlign=middle;resizable=0;points=[];autosize=1;strokeColor=none;fillColor=none;fontFamily=Helvetica;fontSize=11;fontColor=default;labelBackgroundColor=default;" vertex="1" parent="1">
          <mxGeometry x="349" y="365" width="50" height="30" as="geometry" />
        </mxCell>
        <mxCell id="0Ns2KySrUpd4GxgdJG7j-42" style="edgeStyle=orthogonalEdgeStyle;shape=connector;rounded=0;orthogonalLoop=1;jettySize=auto;html=1;exitX=0.5;exitY=0;exitDx=0;exitDy=0;strokeColor=default;align=center;verticalAlign=middle;fontFamily=Helvetica;fontSize=11;fontColor=default;labelBackgroundColor=default;endArrow=classic;endSize=4;" edge="1" parent="1" source="0Ns2KySrUpd4GxgdJG7j-41">
          <mxGeometry relative="1" as="geometry">
            <mxPoint x="280" y="290" as="targetPoint" />
          </mxGeometry>
        </mxCell>
        <mxCell id="0Ns2KySrUpd4GxgdJG7j-41" value="" style="shape=trapezoid;perimeter=trapezoidPerimeter;whiteSpace=wrap;html=1;fixedSize=1;rotation=90;" vertex="1" parent="1">
          <mxGeometry x="180" y="270" width="100" height="40" as="geometry" />
        </mxCell>
        <mxCell id="0Ns2KySrUpd4GxgdJG7j-43" value="" style="endArrow=classic;html=1;rounded=0;strokeColor=default;align=center;verticalAlign=middle;fontFamily=Helvetica;fontSize=11;fontColor=default;labelBackgroundColor=default;edgeStyle=orthogonalEdgeStyle;endSize=4;entryX=0.107;entryY=1;entryDx=0;entryDy=0;entryPerimeter=0;" edge="1" parent="1">
          <mxGeometry width="50" height="50" relative="1" as="geometry">
            <mxPoint x="190" y="260" as="sourcePoint" />
            <mxPoint x="210" y="260" as="targetPoint" />
            <Array as="points">
              <mxPoint x="200" y="259.83" />
              <mxPoint x="200" y="259.83" />
            </Array>
          </mxGeometry>
        </mxCell>
        <mxCell id="0Ns2KySrUpd4GxgdJG7j-44" value="" style="endArrow=classic;html=1;rounded=0;strokeColor=default;align=center;verticalAlign=middle;fontFamily=Helvetica;fontSize=11;fontColor=default;labelBackgroundColor=default;edgeStyle=orthogonalEdgeStyle;endSize=4;entryX=0.107;entryY=1;entryDx=0;entryDy=0;entryPerimeter=0;" edge="1" parent="1">
          <mxGeometry width="50" height="50" relative="1" as="geometry">
            <mxPoint x="190" y="280" as="sourcePoint" />
            <mxPoint x="210" y="280" as="targetPoint" />
            <Array as="points">
              <mxPoint x="200" y="279.83" />
              <mxPoint x="200" y="279.83" />
            </Array>
          </mxGeometry>
        </mxCell>
        <mxCell id="0Ns2KySrUpd4GxgdJG7j-45" value="" style="endArrow=classic;html=1;rounded=0;strokeColor=default;align=center;verticalAlign=middle;fontFamily=Helvetica;fontSize=11;fontColor=default;labelBackgroundColor=default;edgeStyle=orthogonalEdgeStyle;endSize=4;entryX=0.107;entryY=1;entryDx=0;entryDy=0;entryPerimeter=0;" edge="1" parent="1">
          <mxGeometry width="50" height="50" relative="1" as="geometry">
            <mxPoint x="190" y="320" as="sourcePoint" />
            <mxPoint x="210" y="320" as="targetPoint" />
            <Array as="points">
              <mxPoint x="200" y="319.84999999999997" />
              <mxPoint x="200" y="319.84999999999997" />
            </Array>
          </mxGeometry>
        </mxCell>
        <mxCell id="0Ns2KySrUpd4GxgdJG7j-46" value="" style="endArrow=classic;html=1;rounded=0;strokeColor=default;align=center;verticalAlign=middle;fontFamily=Helvetica;fontSize=11;fontColor=default;labelBackgroundColor=default;edgeStyle=orthogonalEdgeStyle;endSize=4;entryX=0.107;entryY=1;entryDx=0;entryDy=0;entryPerimeter=0;" edge="1" parent="1">
          <mxGeometry width="50" height="50" relative="1" as="geometry">
            <mxPoint x="190" y="300" as="sourcePoint" />
            <mxPoint x="210" y="300" as="targetPoint" />
            <Array as="points">
              <mxPoint x="200" y="299.78" />
              <mxPoint x="200" y="299.78" />
            </Array>
          </mxGeometry>
        </mxCell>
        <mxCell id="0Ns2KySrUpd4GxgdJG7j-47" value="1&#39;b0" style="text;html=1;align=center;verticalAlign=middle;resizable=0;points=[];autosize=1;strokeColor=none;fillColor=none;fontFamily=Helvetica;fontSize=11;fontColor=default;labelBackgroundColor=default;" vertex="1" parent="1">
          <mxGeometry x="156" y="245" width="40" height="30" as="geometry" />
        </mxCell>
        <mxCell id="0Ns2KySrUpd4GxgdJG7j-48" value="1&#39;b0" style="text;html=1;align=center;verticalAlign=middle;resizable=0;points=[];autosize=1;strokeColor=none;fillColor=none;fontFamily=Helvetica;fontSize=11;fontColor=default;labelBackgroundColor=default;" vertex="1" parent="1">
          <mxGeometry x="156" y="265" width="40" height="30" as="geometry" />
        </mxCell>
        <mxCell id="0Ns2KySrUpd4GxgdJG7j-49" value="1&#39;b1" style="text;html=1;align=center;verticalAlign=middle;resizable=0;points=[];autosize=1;strokeColor=none;fillColor=none;fontFamily=Helvetica;fontSize=11;fontColor=default;labelBackgroundColor=default;" vertex="1" parent="1">
          <mxGeometry x="156" y="285" width="40" height="30" as="geometry" />
        </mxCell>
        <mxCell id="0Ns2KySrUpd4GxgdJG7j-50" value="1&#39;b0" style="text;html=1;align=center;verticalAlign=middle;resizable=0;points=[];autosize=1;strokeColor=none;fillColor=none;fontFamily=Helvetica;fontSize=11;fontColor=default;labelBackgroundColor=default;" vertex="1" parent="1">
          <mxGeometry x="156" y="305" width="40" height="30" as="geometry" />
        </mxCell>
        <mxCell id="0Ns2KySrUpd4GxgdJG7j-51" value="0" style="text;html=1;align=center;verticalAlign=middle;resizable=0;points=[];autosize=1;strokeColor=none;fillColor=none;fontFamily=Helvetica;fontSize=11;fontColor=#999999;labelBackgroundColor=default;rounded=0;imageWidth=12;imageHeight=1;connectable=0;allowArrows=0;" vertex="1" parent="1">
          <mxGeometry x="202" y="245" width="30" height="30" as="geometry" />
        </mxCell>
        <mxCell id="0Ns2KySrUpd4GxgdJG7j-52" value="1" style="text;html=1;align=center;verticalAlign=middle;resizable=0;points=[];autosize=1;strokeColor=none;fillColor=none;fontFamily=Helvetica;fontSize=11;fontColor=#999999;labelBackgroundColor=default;rounded=0;imageWidth=12;imageHeight=1;connectable=0;allowArrows=0;" vertex="1" parent="1">
          <mxGeometry x="202" y="265" width="30" height="30" as="geometry" />
        </mxCell>
        <mxCell id="0Ns2KySrUpd4GxgdJG7j-53" value="2" style="text;html=1;align=center;verticalAlign=middle;resizable=0;points=[];autosize=1;strokeColor=none;fillColor=none;fontFamily=Helvetica;fontSize=11;fontColor=#999999;labelBackgroundColor=default;rounded=0;imageWidth=12;imageHeight=1;connectable=0;allowArrows=0;" vertex="1" parent="1">
          <mxGeometry x="202" y="285" width="30" height="30" as="geometry" />
        </mxCell>
        <mxCell id="0Ns2KySrUpd4GxgdJG7j-54" value="3" style="text;html=1;align=center;verticalAlign=middle;resizable=0;points=[];autosize=1;strokeColor=none;fillColor=none;fontFamily=Helvetica;fontSize=11;fontColor=#999999;labelBackgroundColor=default;rounded=0;imageWidth=12;imageHeight=1;connectable=0;allowArrows=0;" vertex="1" parent="1">
          <mxGeometry x="202" y="305" width="30" height="30" as="geometry" />
        </mxCell>
        <mxCell id="0Ns2KySrUpd4GxgdJG7j-55" value="" style="endArrow=classic;html=1;rounded=0;strokeColor=default;align=center;verticalAlign=middle;fontFamily=Helvetica;fontSize=11;fontColor=default;labelBackgroundColor=default;edgeStyle=orthogonalEdgeStyle;endSize=4;exitX=1;exitY=0.5;exitDx=0;exitDy=0;exitPerimeter=0;" edge="1" parent="1" source="0Ns2KySrUpd4GxgdJG7j-56">
          <mxGeometry width="50" height="50" relative="1" as="geometry">
            <mxPoint x="360" y="210" as="sourcePoint" />
            <mxPoint x="430" y="230" as="targetPoint" />
            <Array as="points">
              <mxPoint x="430" y="210" />
            </Array>
          </mxGeometry>
        </mxCell>
        <mxCell id="0Ns2KySrUpd4GxgdJG7j-56" value="" style="verticalLabelPosition=bottom;shadow=0;dashed=0;align=center;html=1;verticalAlign=top;shape=mxgraph.electrical.logic_gates.logic_gate;operation=or;fontFamily=Helvetica;fontSize=11;fontColor=default;labelBackgroundColor=default;" vertex="1" parent="1">
          <mxGeometry x="320" y="190" width="55" height="40" as="geometry" />
        </mxCell>
        <mxCell id="0Ns2KySrUpd4GxgdJG7j-57" value="&lt;p style=&quot;line-height: 0%;&quot;&gt;&lt;b&gt;==&lt;/b&gt;&lt;/p&gt;&lt;p&gt;&lt;/p&gt;" style="rounded=1;whiteSpace=wrap;html=1;" vertex="1" parent="1">
          <mxGeometry x="290" y="210" width="30" height="30" as="geometry" />
        </mxCell>
        <mxCell id="0Ns2KySrUpd4GxgdJG7j-58" value="&lt;p style=&quot;line-height: 0%;&quot;&gt;&lt;b&gt;==&lt;/b&gt;&lt;/p&gt;&lt;p&gt;&lt;/p&gt;" style="rounded=1;whiteSpace=wrap;html=1;" vertex="1" parent="1">
          <mxGeometry x="290" y="180" width="30" height="30" as="geometry" />
        </mxCell>
        <mxCell id="0Ns2KySrUpd4GxgdJG7j-60" value="" style="endArrow=classic;html=1;rounded=0;strokeColor=default;align=center;verticalAlign=middle;fontFamily=Helvetica;fontSize=11;fontColor=default;labelBackgroundColor=default;edgeStyle=orthogonalEdgeStyle;endSize=4;entryX=0;entryY=0.333;entryDx=0;entryDy=0;entryPerimeter=0;" edge="1" parent="1" target="0Ns2KySrUpd4GxgdJG7j-58">
          <mxGeometry width="50" height="50" relative="1" as="geometry">
            <mxPoint x="270" y="190" as="sourcePoint" />
            <mxPoint x="270" y="190" as="targetPoint" />
            <Array as="points">
              <mxPoint x="280" y="190" />
              <mxPoint x="280" y="190" />
            </Array>
          </mxGeometry>
        </mxCell>
        <mxCell id="0Ns2KySrUpd4GxgdJG7j-61" value="" style="endArrow=classic;html=1;rounded=0;strokeColor=default;align=center;verticalAlign=middle;fontFamily=Helvetica;fontSize=11;fontColor=default;labelBackgroundColor=default;edgeStyle=orthogonalEdgeStyle;endSize=4;entryX=0;entryY=0.333;entryDx=0;entryDy=0;entryPerimeter=0;" edge="1" parent="1">
          <mxGeometry width="50" height="50" relative="1" as="geometry">
            <mxPoint x="270" y="200" as="sourcePoint" />
            <mxPoint x="290" y="200" as="targetPoint" />
            <Array as="points">
              <mxPoint x="280" y="200" />
              <mxPoint x="280" y="200" />
            </Array>
          </mxGeometry>
        </mxCell>
        <mxCell id="0Ns2KySrUpd4GxgdJG7j-62" value="" style="endArrow=classic;html=1;rounded=0;strokeColor=default;align=center;verticalAlign=middle;fontFamily=Helvetica;fontSize=11;fontColor=default;labelBackgroundColor=default;edgeStyle=orthogonalEdgeStyle;endSize=4;entryX=0;entryY=0.333;entryDx=0;entryDy=0;entryPerimeter=0;" edge="1" parent="1">
          <mxGeometry width="50" height="50" relative="1" as="geometry">
            <mxPoint x="270" y="220" as="sourcePoint" />
            <mxPoint x="290" y="220" as="targetPoint" />
            <Array as="points">
              <mxPoint x="280" y="219.9" />
              <mxPoint x="280" y="219.9" />
            </Array>
          </mxGeometry>
        </mxCell>
        <mxCell id="0Ns2KySrUpd4GxgdJG7j-63" value="" style="endArrow=classic;html=1;rounded=0;strokeColor=default;align=center;verticalAlign=middle;fontFamily=Helvetica;fontSize=11;fontColor=default;labelBackgroundColor=default;edgeStyle=orthogonalEdgeStyle;endSize=4;entryX=0;entryY=0.333;entryDx=0;entryDy=0;entryPerimeter=0;" edge="1" parent="1">
          <mxGeometry width="50" height="50" relative="1" as="geometry">
            <mxPoint x="270" y="230" as="sourcePoint" />
            <mxPoint x="290" y="230" as="targetPoint" />
            <Array as="points">
              <mxPoint x="280" y="229.9" />
              <mxPoint x="280" y="229.9" />
            </Array>
          </mxGeometry>
        </mxCell>
        <mxCell id="0Ns2KySrUpd4GxgdJG7j-65" value="c" style="text;html=1;align=center;verticalAlign=middle;resizable=0;points=[];autosize=1;strokeColor=none;fillColor=none;fontFamily=Helvetica;fontSize=11;fontColor=#009900;labelBackgroundColor=default;" vertex="1" parent="1">
          <mxGeometry x="248" y="174" width="30" height="30" as="geometry" />
        </mxCell>
        <mxCell id="0Ns2KySrUpd4GxgdJG7j-66" value="1&#39;b0" style="text;html=1;align=center;verticalAlign=middle;resizable=0;points=[];autosize=1;strokeColor=none;fillColor=none;fontFamily=Helvetica;fontSize=11;fontColor=default;labelBackgroundColor=default;" vertex="1" parent="1">
          <mxGeometry x="236" y="185" width="40" height="30" as="geometry" />
        </mxCell>
        <mxCell id="0Ns2KySrUpd4GxgdJG7j-67" value="d" style="text;html=1;align=center;verticalAlign=middle;resizable=0;points=[];autosize=1;strokeColor=none;fillColor=none;fontFamily=Helvetica;fontSize=11;fontColor=#009900;labelBackgroundColor=default;" vertex="1" parent="1">
          <mxGeometry x="248" y="204" width="30" height="30" as="geometry" />
        </mxCell>
        <mxCell id="0Ns2KySrUpd4GxgdJG7j-68" value="1&#39;b0" style="text;html=1;align=center;verticalAlign=middle;resizable=0;points=[];autosize=1;strokeColor=none;fillColor=none;fontFamily=Helvetica;fontSize=11;fontColor=default;labelBackgroundColor=default;" vertex="1" parent="1">
          <mxGeometry x="236" y="215" width="40" height="30" as="geometry" />
        </mxCell>
        <mxCell id="0Ns2KySrUpd4GxgdJG7j-69" value="eitherEq0" style="text;html=1;align=center;verticalAlign=middle;resizable=0;points=[];autosize=1;strokeColor=none;fillColor=none;fontFamily=Helvetica;fontSize=11;fontColor=#009900;labelBackgroundColor=none;" vertex="1" parent="1">
          <mxGeometry x="947" y="935" width="70" height="30" as="geometry" />
        </mxCell>
        <mxCell id="0Ns2KySrUpd4GxgdJG7j-70" value="" style="endArrow=classic;html=1;rounded=0;strokeColor=default;align=center;verticalAlign=middle;fontFamily=Helvetica;fontSize=11;fontColor=default;labelBackgroundColor=default;edgeStyle=orthogonalEdgeStyle;endSize=4;entryX=0.107;entryY=1;entryDx=0;entryDy=0;entryPerimeter=0;" edge="1" parent="1">
          <mxGeometry width="50" height="50" relative="1" as="geometry">
            <mxPoint x="390" y="140" as="sourcePoint" />
            <mxPoint x="410" y="140" as="targetPoint" />
            <Array as="points">
              <mxPoint x="400" y="140" />
              <mxPoint x="400" y="140" />
            </Array>
          </mxGeometry>
        </mxCell>
        <mxCell id="0Ns2KySrUpd4GxgdJG7j-71" value="&lt;font color=&quot;#ff8000&quot;&gt;WAIT&lt;/font&gt;" style="text;html=1;align=center;verticalAlign=middle;resizable=0;points=[];autosize=1;strokeColor=none;fillColor=none;fontFamily=Helvetica;fontSize=11;fontColor=default;labelBackgroundColor=default;" vertex="1" parent="1">
          <mxGeometry x="349" y="125" width="50" height="30" as="geometry" />
        </mxCell>
        <mxCell id="0Ns2KySrUpd4GxgdJG7j-72" value="" style="endArrow=classic;html=1;rounded=0;strokeColor=default;align=center;verticalAlign=middle;fontFamily=Helvetica;fontSize=11;fontColor=default;labelBackgroundColor=default;edgeStyle=orthogonalEdgeStyle;endSize=4;entryX=0.107;entryY=1;entryDx=0;entryDy=0;entryPerimeter=0;" edge="1" parent="1">
          <mxGeometry width="50" height="50" relative="1" as="geometry">
            <mxPoint x="390" y="180" as="sourcePoint" />
            <mxPoint x="410" y="180" as="targetPoint" />
            <Array as="points">
              <mxPoint x="400" y="180" />
              <mxPoint x="400" y="180" />
            </Array>
          </mxGeometry>
        </mxCell>
        <mxCell id="0Ns2KySrUpd4GxgdJG7j-73" value="&lt;font color=&quot;#ff8000&quot;&gt;CAL&lt;/font&gt;" style="text;html=1;align=center;verticalAlign=middle;resizable=0;points=[];autosize=1;strokeColor=none;fillColor=none;fontFamily=Helvetica;fontSize=11;fontColor=default;labelBackgroundColor=default;" vertex="1" parent="1">
          <mxGeometry x="357" y="165" width="40" height="30" as="geometry" />
        </mxCell>
        <mxCell id="0Ns2KySrUpd4GxgdJG7j-74" value="" style="endArrow=classic;html=1;rounded=0;strokeColor=default;align=center;verticalAlign=middle;fontFamily=Helvetica;fontSize=11;fontColor=default;labelBackgroundColor=default;edgeStyle=orthogonalEdgeStyle;endSize=4;entryX=0.107;entryY=1;entryDx=0;entryDy=0;entryPerimeter=0;" edge="1" parent="1">
          <mxGeometry width="50" height="50" relative="1" as="geometry">
            <mxPoint x="390" y="240" as="sourcePoint" />
            <mxPoint x="410" y="240" as="targetPoint" />
            <Array as="points">
              <mxPoint x="400" y="240" />
              <mxPoint x="400" y="240" />
            </Array>
          </mxGeometry>
        </mxCell>
        <mxCell id="0Ns2KySrUpd4GxgdJG7j-75" value="&lt;font color=&quot;#ff8000&quot;&gt;CAL&lt;/font&gt;" style="text;html=1;align=center;verticalAlign=middle;resizable=0;points=[];autosize=1;strokeColor=none;fillColor=none;fontFamily=Helvetica;fontSize=11;fontColor=default;labelBackgroundColor=default;" vertex="1" parent="1">
          <mxGeometry x="357" y="225" width="40" height="30" as="geometry" />
        </mxCell>
        <mxCell id="0Ns2KySrUpd4GxgdJG7j-76" value="&lt;font color=&quot;#ff8000&quot;&gt;FINISH&lt;/font&gt;" style="text;html=1;align=center;verticalAlign=middle;resizable=0;points=[];autosize=1;strokeColor=none;fillColor=none;fontFamily=Helvetica;fontSize=11;fontColor=default;labelBackgroundColor=default;connectable=0;allowArrows=0;" vertex="1" parent="1">
          <mxGeometry x="339" y="265" width="60" height="30" as="geometry" />
        </mxCell>
        <mxCell id="0Ns2KySrUpd4GxgdJG7j-77" value="" style="endArrow=classic;html=1;rounded=0;strokeColor=default;align=center;verticalAlign=middle;fontFamily=Helvetica;fontSize=11;fontColor=default;labelBackgroundColor=default;edgeStyle=orthogonalEdgeStyle;endSize=4;entryX=0.107;entryY=1;entryDx=0;entryDy=0;entryPerimeter=0;" edge="1" parent="1">
          <mxGeometry width="50" height="50" relative="1" as="geometry">
            <mxPoint x="390" y="280" as="sourcePoint" />
            <mxPoint x="410" y="280" as="targetPoint" />
            <Array as="points">
              <mxPoint x="400" y="280" />
              <mxPoint x="400" y="280" />
            </Array>
          </mxGeometry>
        </mxCell>
        <mxCell id="0Ns2KySrUpd4GxgdJG7j-84" style="edgeStyle=orthogonalEdgeStyle;shape=connector;rounded=0;orthogonalLoop=1;jettySize=auto;html=1;exitX=0.5;exitY=0;exitDx=0;exitDy=0;strokeColor=default;align=center;verticalAlign=middle;fontFamily=Helvetica;fontSize=11;fontColor=default;labelBackgroundColor=default;endArrow=classic;endSize=4;" edge="1" parent="1" source="0Ns2KySrUpd4GxgdJG7j-78">
          <mxGeometry relative="1" as="geometry">
            <mxPoint x="150" y="440.1379310344828" as="targetPoint" />
          </mxGeometry>
        </mxCell>
        <mxCell id="0Ns2KySrUpd4GxgdJG7j-78" value="" style="shape=trapezoid;perimeter=trapezoidPerimeter;whiteSpace=wrap;html=1;fixedSize=1;rotation=90;size=14.103448275862092;" vertex="1" parent="1">
          <mxGeometry x="85" y="425" width="60" height="30" as="geometry" />
        </mxCell>
        <mxCell id="0Ns2KySrUpd4GxgdJG7j-92" style="edgeStyle=orthogonalEdgeStyle;shape=connector;rounded=0;orthogonalLoop=1;jettySize=auto;html=1;exitX=1;exitY=0.5;exitDx=0;exitDy=0;strokeColor=default;align=center;verticalAlign=middle;fontFamily=Helvetica;fontSize=11;fontColor=default;labelBackgroundColor=default;endArrow=classic;endSize=4;" edge="1" parent="1">
          <mxGeometry relative="1" as="geometry">
            <mxPoint x="780" y="270" as="targetPoint" />
            <mxPoint x="210" y="460" as="sourcePoint" />
          </mxGeometry>
        </mxCell>
        <mxCell id="0Ns2KySrUpd4GxgdJG7j-80" value="&lt;p style=&quot;line-height: 0%;&quot;&gt;&lt;b&gt;DFF&lt;/b&gt;&lt;/p&gt;&lt;p&gt;&lt;/p&gt;" style="rounded=1;whiteSpace=wrap;html=1;" vertex="1" parent="1">
          <mxGeometry x="150" y="429" width="60" height="60" as="geometry" />
        </mxCell>
        <mxCell id="0Ns2KySrUpd4GxgdJG7j-81" value="" style="triangle;whiteSpace=wrap;html=1;rotation=-90;" vertex="1" parent="1">
          <mxGeometry x="176" y="477.5" width="8" height="14.5" as="geometry" />
        </mxCell>
        <mxCell id="0Ns2KySrUpd4GxgdJG7j-82" value="D" style="text;html=1;align=center;verticalAlign=middle;resizable=0;points=[];autosize=1;strokeColor=none;fillColor=none;fontColor=#999999;connectable=0;allowArrows=0;fontSize=11;" vertex="1" parent="1">
          <mxGeometry x="143" y="425" width="30" height="30" as="geometry" />
        </mxCell>
        <mxCell id="0Ns2KySrUpd4GxgdJG7j-83" value="Q" style="text;html=1;align=center;verticalAlign=middle;resizable=0;points=[];autosize=1;strokeColor=none;fillColor=none;fontColor=#999999;connectable=0;allowArrows=0;fontSize=11;" vertex="1" parent="1">
          <mxGeometry x="187" y="425" width="30" height="30" as="geometry" />
        </mxCell>
        <mxCell id="0Ns2KySrUpd4GxgdJG7j-86" value="" style="endArrow=classic;html=1;rounded=0;strokeColor=default;align=center;verticalAlign=middle;fontFamily=Helvetica;fontSize=11;fontColor=default;labelBackgroundColor=default;edgeStyle=orthogonalEdgeStyle;endSize=4;entryX=0;entryY=0.5;entryDx=0;entryDy=0;" edge="1" parent="1" target="0Ns2KySrUpd4GxgdJG7j-78">
          <mxGeometry width="50" height="50" relative="1" as="geometry">
            <mxPoint x="115" y="390" as="sourcePoint" />
            <mxPoint x="120" y="394.65999999999997" as="targetPoint" />
            <Array as="points">
              <mxPoint x="115" y="395" />
            </Array>
          </mxGeometry>
        </mxCell>
        <mxCell id="0Ns2KySrUpd4GxgdJG7j-87" value="rst_n" style="text;html=1;align=center;verticalAlign=middle;resizable=0;points=[];autosize=1;strokeColor=none;fillColor=none;fontFamily=Helvetica;fontSize=11;fontColor=default;labelBackgroundColor=default;" vertex="1" parent="1">
          <mxGeometry x="88" y="366" width="50" height="30" as="geometry" />
        </mxCell>
        <mxCell id="0Ns2KySrUpd4GxgdJG7j-88" value="0" style="text;html=1;align=center;verticalAlign=middle;resizable=0;points=[];autosize=1;strokeColor=none;fillColor=none;fontFamily=Helvetica;fontSize=11;fontColor=#999999;labelBackgroundColor=default;rounded=0;imageWidth=12;imageHeight=1;connectable=0;allowArrows=0;" vertex="1" parent="1">
          <mxGeometry x="92" y="415" width="30" height="30" as="geometry" />
        </mxCell>
        <mxCell id="0Ns2KySrUpd4GxgdJG7j-89" value="1" style="text;html=1;align=center;verticalAlign=middle;resizable=0;points=[];autosize=1;strokeColor=none;fillColor=none;fontFamily=Helvetica;fontSize=11;fontColor=#999999;labelBackgroundColor=default;rounded=0;imageWidth=12;imageHeight=1;connectable=0;allowArrows=0;" vertex="1" parent="1">
          <mxGeometry x="92" y="435" width="30" height="30" as="geometry" />
        </mxCell>
        <mxCell id="0Ns2KySrUpd4GxgdJG7j-90" value="" style="endArrow=classic;html=1;rounded=0;strokeColor=default;align=center;verticalAlign=middle;fontFamily=Helvetica;fontSize=11;fontColor=default;labelBackgroundColor=default;edgeStyle=orthogonalEdgeStyle;endSize=4;entryX=0.107;entryY=1;entryDx=0;entryDy=0;entryPerimeter=0;" edge="1" parent="1">
          <mxGeometry width="50" height="50" relative="1" as="geometry">
            <mxPoint x="80" y="430" as="sourcePoint" />
            <mxPoint x="100" y="430" as="targetPoint" />
            <Array as="points">
              <mxPoint x="90" y="430" />
              <mxPoint x="90" y="430" />
            </Array>
          </mxGeometry>
        </mxCell>
        <mxCell id="0Ns2KySrUpd4GxgdJG7j-91" value="&lt;font color=&quot;#ff8000&quot;&gt;WAIT&lt;/font&gt;" style="text;html=1;align=center;verticalAlign=middle;resizable=0;points=[];autosize=1;strokeColor=none;fillColor=none;fontFamily=Helvetica;fontSize=11;fontColor=default;labelBackgroundColor=default;" vertex="1" parent="1">
          <mxGeometry x="39" y="415" width="50" height="30" as="geometry" />
        </mxCell>
        <mxCell id="0Ns2KySrUpd4GxgdJG7j-93" value="state" style="text;html=1;align=center;verticalAlign=middle;resizable=0;points=[];autosize=1;strokeColor=none;fillColor=none;fontFamily=Helvetica;fontSize=11;fontColor=#009900;labelBackgroundColor=default;" vertex="1" parent="1">
          <mxGeometry x="201" y="452.5" width="50" height="30" as="geometry" />
        </mxCell>
        <mxCell id="0Ns2KySrUpd4GxgdJG7j-94" value="" style="endArrow=classic;html=1;rounded=0;strokeColor=default;align=center;verticalAlign=middle;fontFamily=Helvetica;fontSize=11;fontColor=default;labelBackgroundColor=default;edgeStyle=orthogonalEdgeStyle;endSize=4;endFill=1;" edge="1" parent="1">
          <mxGeometry width="50" height="50" relative="1" as="geometry">
            <mxPoint x="230" y="460" as="sourcePoint" />
            <mxPoint x="230" y="330" as="targetPoint" />
          </mxGeometry>
        </mxCell>
        <mxCell id="0Ns2KySrUpd4GxgdJG7j-95" value="" style="ellipse;whiteSpace=wrap;html=1;aspect=fixed;fontFamily=Helvetica;fontSize=11;fontColor=default;labelBackgroundColor=default;fillColor=#000000;strokeColor=none;" vertex="1" parent="1">
          <mxGeometry x="228" y="458" width="4" height="4" as="geometry" />
        </mxCell>
        <mxCell id="0Ns2KySrUpd4GxgdJG7j-96" value="" style="endArrow=classic;html=1;rounded=0;strokeColor=default;align=center;verticalAlign=middle;fontFamily=Helvetica;fontSize=11;fontColor=default;labelBackgroundColor=default;edgeStyle=orthogonalEdgeStyle;endSize=4;endFill=1;" edge="1" parent="1">
          <mxGeometry width="50" height="50" relative="1" as="geometry">
            <mxPoint x="510" y="460" as="sourcePoint" />
            <mxPoint x="510" y="430" as="targetPoint" />
          </mxGeometry>
        </mxCell>
        <mxCell id="0Ns2KySrUpd4GxgdJG7j-97" value="" style="ellipse;whiteSpace=wrap;html=1;aspect=fixed;fontFamily=Helvetica;fontSize=11;fontColor=default;labelBackgroundColor=default;fillColor=#000000;strokeColor=none;" vertex="1" parent="1">
          <mxGeometry x="508" y="458" width="4" height="4" as="geometry" />
        </mxCell>
        <mxCell id="0Ns2KySrUpd4GxgdJG7j-98" value="0" style="text;html=1;align=center;verticalAlign=middle;resizable=0;points=[];autosize=1;strokeColor=none;fillColor=none;fontFamily=Helvetica;fontSize=11;fontColor=#999999;labelBackgroundColor=default;rounded=0;imageWidth=12;imageHeight=1;connectable=0;allowArrows=0;" vertex="1" parent="1">
          <mxGeometry x="472" y="145" width="30" height="30" as="geometry" />
        </mxCell>
        <mxCell id="0Ns2KySrUpd4GxgdJG7j-100" value="2" style="text;html=1;align=center;verticalAlign=middle;resizable=0;points=[];autosize=1;strokeColor=none;fillColor=none;fontFamily=Helvetica;fontSize=11;fontColor=#999999;labelBackgroundColor=default;rounded=0;imageWidth=12;imageHeight=1;connectable=0;allowArrows=0;" vertex="1" parent="1">
          <mxGeometry x="472" y="345" width="30" height="30" as="geometry" />
        </mxCell>
        <mxCell id="0Ns2KySrUpd4GxgdJG7j-101" value="3" style="text;html=1;align=center;verticalAlign=middle;resizable=0;points=[];autosize=1;strokeColor=none;fillColor=none;fontFamily=Helvetica;fontSize=11;fontColor=#999999;labelBackgroundColor=default;rounded=0;imageWidth=12;imageHeight=1;connectable=0;allowArrows=0;" vertex="1" parent="1">
          <mxGeometry x="472" y="405" width="30" height="30" as="geometry" />
        </mxCell>
        <mxCell id="0Ns2KySrUpd4GxgdJG7j-102" value="1" style="text;html=1;align=center;verticalAlign=middle;resizable=0;points=[];autosize=1;strokeColor=none;fillColor=none;fontFamily=Helvetica;fontSize=11;fontColor=#999999;labelBackgroundColor=default;rounded=0;imageWidth=12;imageHeight=1;connectable=0;allowArrows=0;" vertex="1" parent="1">
          <mxGeometry x="472" y="245" width="30" height="30" as="geometry" />
        </mxCell>
        <mxCell id="0Ns2KySrUpd4GxgdJG7j-103" style="edgeStyle=orthogonalEdgeStyle;shape=connector;rounded=0;orthogonalLoop=1;jettySize=auto;html=1;exitX=0.5;exitY=0;exitDx=0;exitDy=0;strokeColor=default;align=center;verticalAlign=middle;fontFamily=Helvetica;fontSize=11;fontColor=default;labelBackgroundColor=default;endArrow=classic;endSize=4;" edge="1" parent="1" source="0Ns2KySrUpd4GxgdJG7j-104">
          <mxGeometry relative="1" as="geometry">
            <mxPoint x="840" y="380" as="targetPoint" />
          </mxGeometry>
        </mxCell>
        <mxCell id="0Ns2KySrUpd4GxgdJG7j-104" value="" style="shape=trapezoid;perimeter=trapezoidPerimeter;whiteSpace=wrap;html=1;fixedSize=1;rotation=90;" vertex="1" parent="1">
          <mxGeometry x="650" y="360" width="100" height="40" as="geometry" />
        </mxCell>
        <mxCell id="0Ns2KySrUpd4GxgdJG7j-105" value="" style="endArrow=classic;html=1;rounded=0;strokeColor=default;align=center;verticalAlign=middle;fontFamily=Helvetica;fontSize=11;fontColor=default;labelBackgroundColor=default;edgeStyle=orthogonalEdgeStyle;endSize=4;entryX=0.107;entryY=1;entryDx=0;entryDy=0;entryPerimeter=0;" edge="1" parent="1">
          <mxGeometry width="50" height="50" relative="1" as="geometry">
            <mxPoint x="660" y="350" as="sourcePoint" />
            <mxPoint x="680" y="350" as="targetPoint" />
            <Array as="points">
              <mxPoint x="670" y="349.83" />
              <mxPoint x="670" y="349.83" />
            </Array>
          </mxGeometry>
        </mxCell>
        <mxCell id="0Ns2KySrUpd4GxgdJG7j-106" value="" style="endArrow=classic;html=1;rounded=0;strokeColor=default;align=center;verticalAlign=middle;fontFamily=Helvetica;fontSize=11;fontColor=default;labelBackgroundColor=default;edgeStyle=orthogonalEdgeStyle;endSize=4;entryX=0.107;entryY=1;entryDx=0;entryDy=0;entryPerimeter=0;" edge="1" parent="1">
          <mxGeometry width="50" height="50" relative="1" as="geometry">
            <mxPoint x="660" y="370" as="sourcePoint" />
            <mxPoint x="680" y="370" as="targetPoint" />
            <Array as="points">
              <mxPoint x="670" y="369.83" />
              <mxPoint x="670" y="369.83" />
            </Array>
          </mxGeometry>
        </mxCell>
        <mxCell id="0Ns2KySrUpd4GxgdJG7j-107" value="" style="endArrow=classic;html=1;rounded=0;strokeColor=default;align=center;verticalAlign=middle;fontFamily=Helvetica;fontSize=11;fontColor=default;labelBackgroundColor=default;edgeStyle=orthogonalEdgeStyle;endSize=4;entryX=0.107;entryY=1;entryDx=0;entryDy=0;entryPerimeter=0;" edge="1" parent="1">
          <mxGeometry width="50" height="50" relative="1" as="geometry">
            <mxPoint x="660" y="410" as="sourcePoint" />
            <mxPoint x="680" y="410" as="targetPoint" />
            <Array as="points">
              <mxPoint x="670" y="409.84999999999997" />
              <mxPoint x="670" y="409.84999999999997" />
            </Array>
          </mxGeometry>
        </mxCell>
        <mxCell id="0Ns2KySrUpd4GxgdJG7j-108" value="" style="endArrow=classic;html=1;rounded=0;strokeColor=default;align=center;verticalAlign=middle;fontFamily=Helvetica;fontSize=11;fontColor=default;labelBackgroundColor=default;edgeStyle=orthogonalEdgeStyle;endSize=4;entryX=0.107;entryY=1;entryDx=0;entryDy=0;entryPerimeter=0;" edge="1" parent="1">
          <mxGeometry width="50" height="50" relative="1" as="geometry">
            <mxPoint x="660" y="390" as="sourcePoint" />
            <mxPoint x="680" y="390" as="targetPoint" />
            <Array as="points">
              <mxPoint x="670" y="389.78" />
              <mxPoint x="670" y="389.78" />
            </Array>
          </mxGeometry>
        </mxCell>
        <mxCell id="0Ns2KySrUpd4GxgdJG7j-109" value="1&#39;b0" style="text;html=1;align=center;verticalAlign=middle;resizable=0;points=[];autosize=1;strokeColor=none;fillColor=none;fontFamily=Helvetica;fontSize=11;fontColor=default;labelBackgroundColor=default;" vertex="1" parent="1">
          <mxGeometry x="626" y="335" width="40" height="30" as="geometry" />
        </mxCell>
        <mxCell id="0Ns2KySrUpd4GxgdJG7j-110" value="1&#39;b0" style="text;html=1;align=center;verticalAlign=middle;resizable=0;points=[];autosize=1;strokeColor=none;fillColor=none;fontFamily=Helvetica;fontSize=11;fontColor=default;labelBackgroundColor=default;" vertex="1" parent="1">
          <mxGeometry x="626" y="355" width="40" height="30" as="geometry" />
        </mxCell>
        <mxCell id="0Ns2KySrUpd4GxgdJG7j-111" value="1&#39;b1" style="text;html=1;align=center;verticalAlign=middle;resizable=0;points=[];autosize=1;strokeColor=none;fillColor=none;fontFamily=Helvetica;fontSize=11;fontColor=default;labelBackgroundColor=default;" vertex="1" parent="1">
          <mxGeometry x="626" y="375" width="40" height="30" as="geometry" />
        </mxCell>
        <mxCell id="0Ns2KySrUpd4GxgdJG7j-112" value="1&#39;b0" style="text;html=1;align=center;verticalAlign=middle;resizable=0;points=[];autosize=1;strokeColor=none;fillColor=none;fontFamily=Helvetica;fontSize=11;fontColor=default;labelBackgroundColor=default;" vertex="1" parent="1">
          <mxGeometry x="626" y="395" width="40" height="30" as="geometry" />
        </mxCell>
        <mxCell id="0Ns2KySrUpd4GxgdJG7j-113" value="0" style="text;html=1;align=center;verticalAlign=middle;resizable=0;points=[];autosize=1;strokeColor=none;fillColor=none;fontFamily=Helvetica;fontSize=11;fontColor=#999999;labelBackgroundColor=default;rounded=0;imageWidth=12;imageHeight=1;connectable=0;allowArrows=0;" vertex="1" parent="1">
          <mxGeometry x="672" y="335" width="30" height="30" as="geometry" />
        </mxCell>
        <mxCell id="0Ns2KySrUpd4GxgdJG7j-114" value="1" style="text;html=1;align=center;verticalAlign=middle;resizable=0;points=[];autosize=1;strokeColor=none;fillColor=none;fontFamily=Helvetica;fontSize=11;fontColor=#999999;labelBackgroundColor=default;rounded=0;imageWidth=12;imageHeight=1;connectable=0;allowArrows=0;" vertex="1" parent="1">
          <mxGeometry x="672" y="355" width="30" height="30" as="geometry" />
        </mxCell>
        <mxCell id="0Ns2KySrUpd4GxgdJG7j-115" value="2" style="text;html=1;align=center;verticalAlign=middle;resizable=0;points=[];autosize=1;strokeColor=none;fillColor=none;fontFamily=Helvetica;fontSize=11;fontColor=#999999;labelBackgroundColor=default;rounded=0;imageWidth=12;imageHeight=1;connectable=0;allowArrows=0;" vertex="1" parent="1">
          <mxGeometry x="672" y="375" width="30" height="30" as="geometry" />
        </mxCell>
        <mxCell id="0Ns2KySrUpd4GxgdJG7j-116" value="3" style="text;html=1;align=center;verticalAlign=middle;resizable=0;points=[];autosize=1;strokeColor=none;fillColor=none;fontFamily=Helvetica;fontSize=11;fontColor=#999999;labelBackgroundColor=default;rounded=0;imageWidth=12;imageHeight=1;connectable=0;allowArrows=0;" vertex="1" parent="1">
          <mxGeometry x="672" y="395" width="30" height="30" as="geometry" />
        </mxCell>
        <mxCell id="0Ns2KySrUpd4GxgdJG7j-117" value="" style="endArrow=classic;html=1;rounded=0;strokeColor=default;align=center;verticalAlign=middle;fontFamily=Helvetica;fontSize=11;fontColor=default;labelBackgroundColor=default;edgeStyle=orthogonalEdgeStyle;endSize=4;endFill=1;" edge="1" parent="1">
          <mxGeometry width="50" height="50" relative="1" as="geometry">
            <mxPoint x="700" y="460" as="sourcePoint" />
            <mxPoint x="700" y="420" as="targetPoint" />
          </mxGeometry>
        </mxCell>
        <mxCell id="0Ns2KySrUpd4GxgdJG7j-118" value="" style="ellipse;whiteSpace=wrap;html=1;aspect=fixed;fontFamily=Helvetica;fontSize=11;fontColor=default;labelBackgroundColor=default;fillColor=#000000;strokeColor=none;" vertex="1" parent="1">
          <mxGeometry x="698" y="458" width="4" height="4" as="geometry" />
        </mxCell>
        <mxCell id="0Ns2KySrUpd4GxgdJG7j-119" value="done" style="text;html=1;align=center;verticalAlign=middle;resizable=0;points=[];autosize=1;strokeColor=none;fillColor=none;fontFamily=Helvetica;fontSize=11;fontColor=#007FFF;labelBackgroundColor=none;" vertex="1" parent="1">
          <mxGeometry x="831" y="364" width="50" height="30" as="geometry" />
        </mxCell>
        <mxCell id="0Ns2KySrUpd4GxgdJG7j-150" style="edgeStyle=orthogonalEdgeStyle;shape=connector;rounded=0;orthogonalLoop=1;jettySize=auto;html=1;exitX=0.5;exitY=0;exitDx=0;exitDy=0;strokeColor=default;align=center;verticalAlign=middle;fontFamily=Helvetica;fontSize=11;fontColor=default;labelBackgroundColor=none;autosize=1;resizable=0;endArrow=classic;endSize=4;" edge="1" parent="1" source="0Ns2KySrUpd4GxgdJG7j-120">
          <mxGeometry relative="1" as="geometry">
            <mxPoint x="840" y="230.0980392156863" as="targetPoint" />
          </mxGeometry>
        </mxCell>
        <mxCell id="0Ns2KySrUpd4GxgdJG7j-120" value="" style="shape=trapezoid;perimeter=trapezoidPerimeter;whiteSpace=wrap;html=1;fixedSize=1;rotation=90;" vertex="1" parent="1">
          <mxGeometry x="730" y="210" width="100" height="40" as="geometry" />
        </mxCell>
        <mxCell id="0Ns2KySrUpd4GxgdJG7j-121" value="" style="endArrow=classic;html=1;rounded=0;strokeColor=default;align=center;verticalAlign=middle;fontFamily=Helvetica;fontSize=11;fontColor=default;labelBackgroundColor=default;edgeStyle=orthogonalEdgeStyle;endSize=4;entryX=0.107;entryY=1;entryDx=0;entryDy=0;entryPerimeter=0;" edge="1" parent="1">
          <mxGeometry width="50" height="50" relative="1" as="geometry">
            <mxPoint x="740" y="200" as="sourcePoint" />
            <mxPoint x="760" y="200" as="targetPoint" />
            <Array as="points">
              <mxPoint x="750" y="199.82999999999998" />
              <mxPoint x="750" y="199.82999999999998" />
            </Array>
          </mxGeometry>
        </mxCell>
        <mxCell id="0Ns2KySrUpd4GxgdJG7j-122" value="" style="endArrow=classic;html=1;rounded=0;strokeColor=default;align=center;verticalAlign=middle;fontFamily=Helvetica;fontSize=11;fontColor=default;labelBackgroundColor=default;edgeStyle=orthogonalEdgeStyle;endSize=4;entryX=0.107;entryY=1;entryDx=0;entryDy=0;entryPerimeter=0;" edge="1" parent="1">
          <mxGeometry width="50" height="50" relative="1" as="geometry">
            <mxPoint x="740" y="220" as="sourcePoint" />
            <mxPoint x="760" y="220" as="targetPoint" />
            <Array as="points">
              <mxPoint x="750" y="219.82999999999998" />
              <mxPoint x="750" y="219.82999999999998" />
            </Array>
          </mxGeometry>
        </mxCell>
        <mxCell id="0Ns2KySrUpd4GxgdJG7j-123" value="" style="endArrow=classic;html=1;rounded=0;strokeColor=default;align=center;verticalAlign=middle;fontFamily=Helvetica;fontSize=11;fontColor=default;labelBackgroundColor=default;edgeStyle=orthogonalEdgeStyle;endSize=4;entryX=0.107;entryY=1;entryDx=0;entryDy=0;entryPerimeter=0;" edge="1" parent="1">
          <mxGeometry width="50" height="50" relative="1" as="geometry">
            <mxPoint x="740" y="260" as="sourcePoint" />
            <mxPoint x="760" y="260" as="targetPoint" />
            <Array as="points">
              <mxPoint x="750" y="259.84999999999997" />
              <mxPoint x="750" y="259.84999999999997" />
            </Array>
          </mxGeometry>
        </mxCell>
        <mxCell id="0Ns2KySrUpd4GxgdJG7j-124" value="" style="endArrow=classic;html=1;rounded=0;strokeColor=default;align=center;verticalAlign=middle;fontFamily=Helvetica;fontSize=11;fontColor=default;labelBackgroundColor=default;edgeStyle=orthogonalEdgeStyle;endSize=4;entryX=0.107;entryY=1;entryDx=0;entryDy=0;entryPerimeter=0;" edge="1" parent="1">
          <mxGeometry width="50" height="50" relative="1" as="geometry">
            <mxPoint x="710" y="240" as="sourcePoint" />
            <mxPoint x="760" y="240" as="targetPoint" />
            <Array as="points">
              <mxPoint x="750" y="239.77999999999997" />
              <mxPoint x="750" y="239.77999999999997" />
            </Array>
          </mxGeometry>
        </mxCell>
        <mxCell id="0Ns2KySrUpd4GxgdJG7j-125" value="1&#39;b0" style="text;html=1;align=center;verticalAlign=middle;resizable=0;points=[];autosize=1;strokeColor=none;fillColor=none;fontFamily=Helvetica;fontSize=11;fontColor=default;labelBackgroundColor=default;" vertex="1" parent="1">
          <mxGeometry x="706" y="185" width="40" height="30" as="geometry" />
        </mxCell>
        <mxCell id="0Ns2KySrUpd4GxgdJG7j-126" value="1&#39;b0" style="text;html=1;align=center;verticalAlign=middle;resizable=0;points=[];autosize=1;strokeColor=none;fillColor=none;fontFamily=Helvetica;fontSize=11;fontColor=default;labelBackgroundColor=default;" vertex="1" parent="1">
          <mxGeometry x="706" y="205" width="40" height="30" as="geometry" />
        </mxCell>
        <mxCell id="0Ns2KySrUpd4GxgdJG7j-128" value="1&#39;b0" style="text;html=1;align=center;verticalAlign=middle;resizable=0;points=[];autosize=1;strokeColor=none;fillColor=none;fontFamily=Helvetica;fontSize=11;fontColor=default;labelBackgroundColor=default;" vertex="1" parent="1">
          <mxGeometry x="706" y="245" width="40" height="30" as="geometry" />
        </mxCell>
        <mxCell id="0Ns2KySrUpd4GxgdJG7j-129" value="0" style="text;html=1;align=center;verticalAlign=middle;resizable=0;points=[];autosize=1;strokeColor=none;fillColor=none;fontFamily=Helvetica;fontSize=11;fontColor=#999999;labelBackgroundColor=default;rounded=0;imageWidth=12;imageHeight=1;connectable=0;allowArrows=0;" vertex="1" parent="1">
          <mxGeometry x="752" y="185" width="30" height="30" as="geometry" />
        </mxCell>
        <mxCell id="0Ns2KySrUpd4GxgdJG7j-130" value="1" style="text;html=1;align=center;verticalAlign=middle;resizable=0;points=[];autosize=1;strokeColor=none;fillColor=none;fontFamily=Helvetica;fontSize=11;fontColor=#999999;labelBackgroundColor=default;rounded=0;imageWidth=12;imageHeight=1;connectable=0;allowArrows=0;" vertex="1" parent="1">
          <mxGeometry x="752" y="205" width="30" height="30" as="geometry" />
        </mxCell>
        <mxCell id="0Ns2KySrUpd4GxgdJG7j-131" value="2" style="text;html=1;align=center;verticalAlign=middle;resizable=0;points=[];autosize=1;strokeColor=none;fillColor=none;fontFamily=Helvetica;fontSize=11;fontColor=#999999;labelBackgroundColor=default;rounded=0;imageWidth=12;imageHeight=1;connectable=0;allowArrows=0;" vertex="1" parent="1">
          <mxGeometry x="752" y="225" width="30" height="30" as="geometry" />
        </mxCell>
        <mxCell id="0Ns2KySrUpd4GxgdJG7j-132" value="3" style="text;html=1;align=center;verticalAlign=middle;resizable=0;points=[];autosize=1;strokeColor=none;fillColor=none;fontFamily=Helvetica;fontSize=11;fontColor=#999999;labelBackgroundColor=default;rounded=0;imageWidth=12;imageHeight=1;connectable=0;allowArrows=0;" vertex="1" parent="1">
          <mxGeometry x="752" y="245" width="30" height="30" as="geometry" />
        </mxCell>
        <mxCell id="0Ns2KySrUpd4GxgdJG7j-135" value="" style="shape=trapezoid;perimeter=trapezoidPerimeter;whiteSpace=wrap;html=1;fixedSize=1;rotation=90;size=14.103448275862092;" vertex="1" parent="1">
          <mxGeometry x="665" y="225.5" width="60" height="30" as="geometry" />
        </mxCell>
        <mxCell id="0Ns2KySrUpd4GxgdJG7j-136" value="" style="endArrow=classic;html=1;rounded=0;strokeColor=default;align=center;verticalAlign=middle;fontFamily=Helvetica;fontSize=11;fontColor=default;labelBackgroundColor=default;edgeStyle=orthogonalEdgeStyle;endSize=4;entryX=0;entryY=0.5;entryDx=0;entryDy=0;" edge="1" parent="1" target="0Ns2KySrUpd4GxgdJG7j-135">
          <mxGeometry width="50" height="50" relative="1" as="geometry">
            <mxPoint x="695" y="190.5" as="sourcePoint" />
            <mxPoint x="700" y="195.15999999999997" as="targetPoint" />
            <Array as="points">
              <mxPoint x="695" y="195.5" />
            </Array>
          </mxGeometry>
        </mxCell>
        <mxCell id="0Ns2KySrUpd4GxgdJG7j-139" value="" style="endArrow=classic;html=1;rounded=0;strokeColor=default;align=center;verticalAlign=middle;fontFamily=Helvetica;fontSize=11;fontColor=default;labelBackgroundColor=default;edgeStyle=orthogonalEdgeStyle;endSize=4;entryX=0.107;entryY=1;entryDx=0;entryDy=0;entryPerimeter=0;" edge="1" parent="1">
          <mxGeometry width="50" height="50" relative="1" as="geometry">
            <mxPoint x="660" y="229.5" as="sourcePoint" />
            <mxPoint x="680" y="229.5" as="targetPoint" />
            <Array as="points">
              <mxPoint x="670" y="229.5" />
              <mxPoint x="670" y="229.5" />
            </Array>
          </mxGeometry>
        </mxCell>
        <mxCell id="0Ns2KySrUpd4GxgdJG7j-140" value="" style="endArrow=classic;html=1;rounded=0;strokeColor=default;align=center;verticalAlign=middle;fontFamily=Helvetica;fontSize=11;fontColor=default;labelBackgroundColor=default;edgeStyle=orthogonalEdgeStyle;endSize=4;entryX=0.107;entryY=1;entryDx=0;entryDy=0;entryPerimeter=0;" edge="1" parent="1">
          <mxGeometry width="50" height="50" relative="1" as="geometry">
            <mxPoint x="660" y="250.01" as="sourcePoint" />
            <mxPoint x="680" y="250.01" as="targetPoint" />
            <Array as="points">
              <mxPoint x="670" y="250.01" />
              <mxPoint x="670" y="250.01" />
            </Array>
          </mxGeometry>
        </mxCell>
        <mxCell id="0Ns2KySrUpd4GxgdJG7j-142" value="c" style="text;html=1;align=center;verticalAlign=middle;resizable=0;points=[];autosize=1;strokeColor=none;fillColor=none;fontFamily=Helvetica;fontSize=11;fontColor=#009900;labelBackgroundColor=none;allowArrows=0;connectable=0;imageAspect=0;pointerEvents=0;deletable=0;" vertex="1" parent="1">
          <mxGeometry x="638" y="214" width="30" height="30" as="geometry" />
        </mxCell>
        <mxCell id="0Ns2KySrUpd4GxgdJG7j-143" value="d" style="text;html=1;align=center;verticalAlign=middle;resizable=0;points=[];autosize=1;strokeColor=none;fillColor=none;fontFamily=Helvetica;fontSize=11;fontColor=#009900;labelBackgroundColor=none;allowArrows=0;connectable=0;imageAspect=0;pointerEvents=0;deletable=0;" vertex="1" parent="1">
          <mxGeometry x="638" y="234" width="30" height="30" as="geometry" />
        </mxCell>
        <mxCell id="0Ns2KySrUpd4GxgdJG7j-144" value="&lt;p style=&quot;line-height: 0%;&quot;&gt;&lt;b&gt;==&lt;/b&gt;&lt;/p&gt;&lt;p&gt;&lt;/p&gt;" style="rounded=1;whiteSpace=wrap;html=1;" vertex="1" parent="1">
          <mxGeometry x="680" y="160" width="30" height="30" as="geometry" />
        </mxCell>
        <mxCell id="0Ns2KySrUpd4GxgdJG7j-145" value="" style="endArrow=classic;html=1;rounded=0;strokeColor=default;align=center;verticalAlign=middle;fontFamily=Helvetica;fontSize=11;fontColor=default;labelBackgroundColor=default;edgeStyle=orthogonalEdgeStyle;endSize=4;entryX=0.107;entryY=1;entryDx=0;entryDy=0;entryPerimeter=0;" edge="1" parent="1">
          <mxGeometry width="50" height="50" relative="1" as="geometry">
            <mxPoint x="660" y="170.5" as="sourcePoint" />
            <mxPoint x="680" y="170.5" as="targetPoint" />
            <Array as="points">
              <mxPoint x="670" y="170.5" />
              <mxPoint x="670" y="170.5" />
            </Array>
          </mxGeometry>
        </mxCell>
        <mxCell id="0Ns2KySrUpd4GxgdJG7j-146" value="c" style="text;html=1;align=center;verticalAlign=middle;resizable=0;points=[];autosize=1;strokeColor=none;fillColor=none;fontFamily=Helvetica;fontSize=11;fontColor=#009900;labelBackgroundColor=none;allowArrows=0;connectable=0;imageAspect=0;pointerEvents=0;" vertex="1" parent="1">
          <mxGeometry x="639" y="154" width="30" height="30" as="geometry" />
        </mxCell>
        <mxCell id="0Ns2KySrUpd4GxgdJG7j-148" value="" style="endArrow=classic;html=1;rounded=0;strokeColor=default;align=center;verticalAlign=middle;fontFamily=Helvetica;fontSize=11;fontColor=default;labelBackgroundColor=default;edgeStyle=orthogonalEdgeStyle;endSize=4;entryX=0.107;entryY=1;entryDx=0;entryDy=0;entryPerimeter=0;" edge="1" parent="1">
          <mxGeometry width="50" height="50" relative="1" as="geometry">
            <mxPoint x="660" y="180.01" as="sourcePoint" />
            <mxPoint x="680" y="180.01" as="targetPoint" />
            <Array as="points">
              <mxPoint x="670" y="180.01" />
              <mxPoint x="670" y="180.01" />
            </Array>
          </mxGeometry>
        </mxCell>
        <mxCell id="0Ns2KySrUpd4GxgdJG7j-149" value="1&#39;b0" style="text;html=1;align=center;verticalAlign=middle;resizable=0;points=[];autosize=1;strokeColor=none;fillColor=none;fontFamily=Helvetica;fontSize=11;fontColor=default;labelBackgroundColor=none;allowArrows=0;connectable=0;imageAspect=0;pointerEvents=0;" vertex="1" parent="1">
          <mxGeometry x="627" y="165" width="40" height="30" as="geometry" />
        </mxCell>
        <mxCell id="0Ns2KySrUpd4GxgdJG7j-151" value="gcd" style="text;html=1;align=center;verticalAlign=middle;resizable=0;points=[];autosize=1;strokeColor=none;fillColor=none;fontFamily=Helvetica;fontSize=11;fontColor=#007FFF;labelBackgroundColor=none;" vertex="1" parent="1">
          <mxGeometry x="833" y="214" width="40" height="30" as="geometry" />
        </mxCell>
        <mxCell id="0Ns2KySrUpd4GxgdJG7j-153" value="" style="endArrow=classic;html=1;rounded=0;strokeColor=default;align=center;verticalAlign=middle;fontFamily=Helvetica;fontSize=11;fontColor=default;labelBackgroundColor=none;autosize=1;resizable=0;edgeStyle=orthogonalEdgeStyle;endSize=4;" edge="1" parent="1">
          <mxGeometry width="50" height="50" relative="1" as="geometry">
            <mxPoint x="310" y="360" as="sourcePoint" />
            <mxPoint x="310" y="340" as="targetPoint" />
            <Array as="points">
              <mxPoint x="310" y="350" />
              <mxPoint x="310" y="350" />
            </Array>
          </mxGeometry>
        </mxCell>
        <mxCell id="0Ns2KySrUpd4GxgdJG7j-158" value="0" style="text;html=1;align=center;verticalAlign=middle;resizable=0;points=[];autosize=1;strokeColor=none;fillColor=none;fontFamily=Helvetica;fontSize=11;fontColor=#999999;labelBackgroundColor=none;allowArrows=0;connectable=0;imageAspect=0;pointerEvents=0;deletable=0;" vertex="1" parent="1">
          <mxGeometry x="672" y="214" width="30" height="30" as="geometry" />
        </mxCell>
        <mxCell id="0Ns2KySrUpd4GxgdJG7j-159" value="1" style="text;html=1;align=center;verticalAlign=middle;resizable=0;points=[];autosize=1;strokeColor=none;fillColor=none;fontFamily=Helvetica;fontSize=11;fontColor=#999999;labelBackgroundColor=none;allowArrows=0;connectable=0;imageAspect=0;pointerEvents=0;deletable=0;" vertex="1" parent="1">
          <mxGeometry x="672" y="234" width="30" height="30" as="geometry" />
        </mxCell>
        <mxCell id="0Ns2KySrUpd4GxgdJG7j-162" value="" style="endArrow=classic;html=1;rounded=0;strokeColor=default;align=center;verticalAlign=middle;fontFamily=Helvetica;fontSize=11;fontColor=default;labelBackgroundColor=default;edgeStyle=orthogonalEdgeStyle;endSize=4;entryX=0.5;entryY=1;entryDx=0;entryDy=0;" edge="1" parent="1" target="0Ns2KySrUpd4GxgdJG7j-80">
          <mxGeometry width="50" height="50" relative="1" as="geometry">
            <mxPoint x="160" y="500" as="sourcePoint" />
            <mxPoint x="180" y="500" as="targetPoint" />
            <Array as="points">
              <mxPoint x="180" y="500" />
            </Array>
          </mxGeometry>
        </mxCell>
        <mxCell id="0Ns2KySrUpd4GxgdJG7j-163" value="clk" style="text;html=1;align=center;verticalAlign=middle;resizable=0;points=[];autosize=1;strokeColor=none;fillColor=none;fontFamily=Helvetica;fontSize=11;fontColor=default;labelBackgroundColor=none;" vertex="1" parent="1">
          <mxGeometry x="130" y="484" width="40" height="30" as="geometry" />
        </mxCell>
        <mxCell id="0Ns2KySrUpd4GxgdJG7j-164" value="clk" style="text;html=1;align=center;verticalAlign=middle;resizable=0;points=[];autosize=1;strokeColor=none;fillColor=none;fontFamily=Helvetica;fontSize=11;fontColor=default;labelBackgroundColor=none;allowArrows=0;connectable=0;imageAspect=0;pointerEvents=0;deletable=1;" vertex="1" parent="1">
          <mxGeometry x="290" y="352" width="40" height="30" as="geometry" />
        </mxCell>
        <mxCell id="0Ns2KySrUpd4GxgdJG7j-171" value="" style="rounded=0;whiteSpace=wrap;html=1;pointerEvents=1;strokeColor=none;align=center;verticalAlign=middle;fontFamily=Helvetica;fontSize=12;fontColor=default;autosize=1;resizable=1;fillColor=#000000;gradientColor=none;" vertex="1" parent="1">
          <mxGeometry x="72" y="110" width="10" height="10" as="geometry" />
        </mxCell>
        <mxCell id="0Ns2KySrUpd4GxgdJG7j-173" value="inputs &amp;amp; primitive values" style="text;html=1;align=center;verticalAlign=middle;resizable=1;points=[];autosize=1;strokeColor=none;fillColor=none;fontFamily=Helvetica;fontSize=12;fontColor=default;labelBackgroundColor=none;allowArrows=0;connectable=0;imageAspect=0;pointerEvents=0;deletable=1;" vertex="1" parent="1">
          <mxGeometry x="76" y="100" width="150" height="30" as="geometry" />
        </mxCell>
        <mxCell id="0Ns2KySrUpd4GxgdJG7j-174" value="" style="rounded=0;whiteSpace=wrap;html=1;pointerEvents=1;strokeColor=none;align=center;verticalAlign=middle;fontFamily=Helvetica;fontSize=12;fontColor=default;autosize=1;resizable=1;fillColor=#009900;gradientColor=none;" vertex="1" parent="1">
          <mxGeometry x="72" y="150" width="10" height="10" as="geometry" />
        </mxCell>
        <mxCell id="0Ns2KySrUpd4GxgdJG7j-175" value="" style="rounded=0;whiteSpace=wrap;html=1;pointerEvents=1;strokeColor=none;align=center;verticalAlign=middle;fontFamily=Helvetica;fontSize=12;fontColor=default;autosize=1;resizable=1;fillColor=#007FFF;gradientColor=none;" vertex="1" parent="1">
          <mxGeometry x="72" y="130" width="10" height="10" as="geometry" />
        </mxCell>
        <mxCell id="0Ns2KySrUpd4GxgdJG7j-176" value="" style="rounded=0;whiteSpace=wrap;html=1;pointerEvents=1;strokeColor=none;align=center;verticalAlign=middle;fontFamily=Helvetica;fontSize=12;fontColor=default;autosize=1;resizable=1;fillColor=#FF8000;gradientColor=none;" vertex="1" parent="1">
          <mxGeometry x="72" y="170" width="10" height="10" as="geometry" />
        </mxCell>
        <mxCell id="0Ns2KySrUpd4GxgdJG7j-177" value="outputs" style="text;html=1;align=center;verticalAlign=middle;resizable=1;points=[];autosize=1;strokeColor=none;fillColor=none;fontFamily=Helvetica;fontSize=12;fontColor=default;labelBackgroundColor=none;allowArrows=0;connectable=0;imageAspect=0;pointerEvents=0;deletable=1;" vertex="1" parent="1">
          <mxGeometry x="75" y="119" width="60" height="30" as="geometry" />
        </mxCell>
        <mxCell id="0Ns2KySrUpd4GxgdJG7j-178" value="internal signals" style="text;html=1;align=center;verticalAlign=middle;resizable=1;points=[];autosize=1;strokeColor=none;fillColor=none;fontFamily=Helvetica;fontSize=12;fontColor=default;labelBackgroundColor=none;allowArrows=0;connectable=0;imageAspect=0;pointerEvents=0;deletable=1;" vertex="1" parent="1">
          <mxGeometry x="76" y="140" width="100" height="30" as="geometry" />
        </mxCell>
        <mxCell id="0Ns2KySrUpd4GxgdJG7j-179" value="states" style="text;html=1;align=center;verticalAlign=middle;resizable=1;points=[];autosize=1;strokeColor=none;fillColor=none;fontFamily=Helvetica;fontSize=12;fontColor=default;labelBackgroundColor=none;allowArrows=0;connectable=0;imageAspect=0;pointerEvents=0;deletable=1;" vertex="1" parent="1">
          <mxGeometry x="72" y="160" width="60" height="30" as="geometry" />
        </mxCell>
        <mxCell id="0Ns2KySrUpd4GxgdJG7j-180" value="WAIT = 2&#39;d0&lt;div&gt;CAL = 2&#39;d1&lt;/div&gt;&lt;div style=&quot;&quot;&gt;FINISH = 2&#39;d2&lt;/div&gt;" style="text;html=1;align=left;verticalAlign=middle;resizable=1;points=[];autosize=1;strokeColor=none;fillColor=none;fontFamily=Helvetica;fontSize=12;fontColor=default;labelBackgroundColor=none;allowArrows=0;connectable=0;imageAspect=0;pointerEvents=0;deletable=1;" vertex="1" parent="1">
          <mxGeometry x="64.5" y="195" width="91" height="60" as="geometry" />
        </mxCell>
        <mxCell id="0Ns2KySrUpd4GxgdJG7j-182" value="" style="shape=trapezoid;perimeter=trapezoidPerimeter;whiteSpace=wrap;html=1;fixedSize=1;rotation=90;snapToPoint=1;" vertex="1" parent="1">
          <mxGeometry x="980" y="780" width="240" height="40" as="geometry" />
        </mxCell>
        <mxCell id="0Ns2KySrUpd4GxgdJG7j-229" value="&lt;p style=&quot;line-height: 0%;&quot;&gt;&lt;b&gt;DFF&lt;/b&gt;&lt;/p&gt;&lt;p&gt;&lt;/p&gt;" style="rounded=1;whiteSpace=wrap;html=1;strokeColor=default;align=center;verticalAlign=middle;fontFamily=Helvetica;fontSize=12;fontColor=default;fillColor=default;" vertex="1" parent="1">
          <mxGeometry x="1140" y="790" width="60" height="60" as="geometry" />
        </mxCell>
        <mxCell id="0Ns2KySrUpd4GxgdJG7j-230" value="" style="triangle;whiteSpace=wrap;html=1;rotation=-90;strokeColor=default;align=center;verticalAlign=middle;fontFamily=Helvetica;fontSize=12;fontColor=default;fillColor=default;" vertex="1" parent="1">
          <mxGeometry x="1166" y="838.5" width="8" height="14.5" as="geometry" />
        </mxCell>
        <mxCell id="0Ns2KySrUpd4GxgdJG7j-231" value="D" style="text;html=1;align=center;verticalAlign=middle;resizable=0;points=[];autosize=1;strokeColor=none;fillColor=none;fontColor=#999999;connectable=0;allowArrows=0;fontSize=12;pointerEvents=1;fontFamily=Helvetica;" vertex="1" parent="1">
          <mxGeometry x="1133" y="786" width="30" height="30" as="geometry" />
        </mxCell>
        <mxCell id="0Ns2KySrUpd4GxgdJG7j-232" value="Q" style="text;html=1;align=center;verticalAlign=middle;resizable=0;points=[];autosize=1;strokeColor=none;fillColor=none;fontColor=#999999;connectable=0;allowArrows=0;fontSize=12;pointerEvents=1;fontFamily=Helvetica;" vertex="1" parent="1">
          <mxGeometry x="1177" y="786" width="30" height="30" as="geometry" />
        </mxCell>
        <mxCell id="0Ns2KySrUpd4GxgdJG7j-233" style="edgeStyle=orthogonalEdgeStyle;shape=connector;rounded=0;orthogonalLoop=1;jettySize=auto;html=1;exitX=0.5;exitY=0;exitDx=0;exitDy=0;strokeColor=default;align=center;verticalAlign=middle;fontFamily=Helvetica;fontSize=11;fontColor=default;labelBackgroundColor=default;endArrow=classic;endSize=4;autosize=1;resizable=1;" edge="1" parent="1">
          <mxGeometry relative="1" as="geometry">
            <mxPoint x="1140" y="800" as="targetPoint" />
            <mxPoint x="1120" y="800" as="sourcePoint" />
          </mxGeometry>
        </mxCell>
        <mxCell id="0Ns2KySrUpd4GxgdJG7j-234" value="" style="endArrow=classic;html=1;rounded=0;strokeColor=default;align=center;verticalAlign=middle;fontFamily=Helvetica;fontSize=11;fontColor=default;labelBackgroundColor=none;autosize=1;resizable=0;edgeStyle=orthogonalEdgeStyle;endSize=4;" edge="1" parent="1">
          <mxGeometry width="50" height="50" relative="1" as="geometry">
            <mxPoint x="1170" y="870" as="sourcePoint" />
            <mxPoint x="1170" y="850" as="targetPoint" />
            <Array as="points">
              <mxPoint x="1170" y="860" />
              <mxPoint x="1170" y="860" />
            </Array>
          </mxGeometry>
        </mxCell>
        <mxCell id="0Ns2KySrUpd4GxgdJG7j-235" style="edgeStyle=orthogonalEdgeStyle;shape=connector;rounded=0;orthogonalLoop=1;jettySize=auto;html=1;exitX=0.5;exitY=0;exitDx=0;exitDy=0;strokeColor=#99004D;align=center;verticalAlign=middle;fontFamily=Helvetica;fontSize=11;fontColor=default;labelBackgroundColor=default;endArrow=classic;endSize=4;autosize=1;resizable=1;" edge="1" parent="1">
          <mxGeometry relative="1" as="geometry">
            <mxPoint x="1280" y="800" as="targetPoint" />
            <mxPoint x="1200" y="800" as="sourcePoint" />
          </mxGeometry>
        </mxCell>
        <mxCell id="0Ns2KySrUpd4GxgdJG7j-240" value="" style="shape=trapezoid;perimeter=trapezoidPerimeter;whiteSpace=wrap;html=1;fixedSize=1;rotation=90;size=14.103448275862092;" vertex="1" parent="1">
          <mxGeometry x="1005" y="705.5" width="60" height="30" as="geometry" />
        </mxCell>
        <mxCell id="0Ns2KySrUpd4GxgdJG7j-241" value="" style="endArrow=classic;html=1;rounded=0;strokeColor=default;align=center;verticalAlign=middle;fontFamily=Helvetica;fontSize=11;fontColor=default;labelBackgroundColor=default;edgeStyle=orthogonalEdgeStyle;endSize=4;entryX=0;entryY=0.5;entryDx=0;entryDy=0;" edge="1" parent="1" target="0Ns2KySrUpd4GxgdJG7j-240">
          <mxGeometry width="50" height="50" relative="1" as="geometry">
            <mxPoint x="1035" y="680" as="sourcePoint" />
            <mxPoint x="1040" y="675.16" as="targetPoint" />
            <Array as="points">
              <mxPoint x="1035" y="680" />
            </Array>
          </mxGeometry>
        </mxCell>
        <mxCell id="0Ns2KySrUpd4GxgdJG7j-242" value="" style="endArrow=classic;html=1;rounded=0;strokeColor=default;align=center;verticalAlign=middle;fontFamily=Helvetica;fontSize=11;fontColor=default;labelBackgroundColor=default;edgeStyle=orthogonalEdgeStyle;endSize=4;entryX=0.107;entryY=1;entryDx=0;entryDy=0;entryPerimeter=0;" edge="1" parent="1">
          <mxGeometry width="50" height="50" relative="1" as="geometry">
            <mxPoint x="1000" y="709.5" as="sourcePoint" />
            <mxPoint x="1020" y="709.5" as="targetPoint" />
            <Array as="points">
              <mxPoint x="1010" y="709.5" />
              <mxPoint x="1010" y="709.5" />
            </Array>
          </mxGeometry>
        </mxCell>
        <mxCell id="0Ns2KySrUpd4GxgdJG7j-243" value="" style="endArrow=classic;html=1;rounded=0;strokeColor=default;align=center;verticalAlign=middle;fontFamily=Helvetica;fontSize=11;fontColor=default;labelBackgroundColor=default;edgeStyle=orthogonalEdgeStyle;endSize=4;entryX=0.107;entryY=1;entryDx=0;entryDy=0;entryPerimeter=0;" edge="1" parent="1">
          <mxGeometry width="50" height="50" relative="1" as="geometry">
            <mxPoint x="1000" y="730.01" as="sourcePoint" />
            <mxPoint x="1020" y="730.01" as="targetPoint" />
            <Array as="points">
              <mxPoint x="1010" y="730.01" />
              <mxPoint x="1010" y="730.01" />
            </Array>
          </mxGeometry>
        </mxCell>
        <mxCell id="0Ns2KySrUpd4GxgdJG7j-244" value="16&#39;d0" style="text;html=1;align=center;verticalAlign=middle;resizable=0;points=[];autosize=1;strokeColor=none;fillColor=none;fontFamily=Helvetica;fontSize=11;fontColor=default;labelBackgroundColor=none;allowArrows=0;connectable=0;imageAspect=0;pointerEvents=0;deletable=0;" vertex="1" parent="1">
          <mxGeometry x="959" y="694" width="50" height="30" as="geometry" />
        </mxCell>
        <mxCell id="0Ns2KySrUpd4GxgdJG7j-245" value="a" style="text;html=1;align=center;verticalAlign=middle;resizable=0;points=[];autosize=1;strokeColor=none;fillColor=none;fontFamily=Helvetica;fontSize=11;fontColor=default;labelBackgroundColor=none;allowArrows=0;connectable=0;imageAspect=0;pointerEvents=0;deletable=0;" vertex="1" parent="1">
          <mxGeometry x="979" y="714" width="30" height="30" as="geometry" />
        </mxCell>
        <mxCell id="0Ns2KySrUpd4GxgdJG7j-246" value="&lt;p style=&quot;line-height: 0%;&quot;&gt;&lt;b&gt;==&lt;/b&gt;&lt;/p&gt;&lt;p&gt;&lt;/p&gt;" style="rounded=1;whiteSpace=wrap;html=1;" vertex="1" parent="1">
          <mxGeometry x="1020" y="650" width="30" height="30" as="geometry" />
        </mxCell>
        <mxCell id="0Ns2KySrUpd4GxgdJG7j-247" value="" style="endArrow=classic;html=1;rounded=0;strokeColor=default;align=center;verticalAlign=middle;fontFamily=Helvetica;fontSize=11;fontColor=default;labelBackgroundColor=default;edgeStyle=orthogonalEdgeStyle;endSize=4;" edge="1" parent="1">
          <mxGeometry width="50" height="50" relative="1" as="geometry">
            <mxPoint x="990" y="660" as="sourcePoint" />
            <mxPoint x="1020" y="660" as="targetPoint" />
            <Array as="points">
              <mxPoint x="1010" y="660" />
            </Array>
          </mxGeometry>
        </mxCell>
        <mxCell id="0Ns2KySrUpd4GxgdJG7j-248" value="next_state" style="text;html=1;align=center;verticalAlign=middle;resizable=0;points=[];autosize=1;strokeColor=none;fillColor=none;fontFamily=Helvetica;fontSize=11;fontColor=#009900;labelBackgroundColor=none;allowArrows=0;connectable=0;imageAspect=0;pointerEvents=0;" vertex="1" parent="1">
          <mxGeometry x="925" y="644" width="70" height="30" as="geometry" />
        </mxCell>
        <mxCell id="0Ns2KySrUpd4GxgdJG7j-249" value="" style="endArrow=classic;html=1;rounded=0;strokeColor=default;align=center;verticalAlign=middle;fontFamily=Helvetica;fontSize=11;fontColor=default;labelBackgroundColor=default;edgeStyle=orthogonalEdgeStyle;endSize=4;entryX=0.107;entryY=1;entryDx=0;entryDy=0;entryPerimeter=0;" edge="1" parent="1">
          <mxGeometry width="50" height="50" relative="1" as="geometry">
            <mxPoint x="990" y="670" as="sourcePoint" />
            <mxPoint x="1020" y="670.01" as="targetPoint" />
            <Array as="points">
              <mxPoint x="1010" y="670.01" />
              <mxPoint x="1010" y="670.01" />
            </Array>
          </mxGeometry>
        </mxCell>
        <mxCell id="0Ns2KySrUpd4GxgdJG7j-250" value="CAL" style="text;html=1;align=center;verticalAlign=middle;resizable=0;points=[];autosize=1;strokeColor=none;fillColor=none;fontFamily=Helvetica;fontSize=11;fontColor=#FF8000;labelBackgroundColor=none;allowArrows=0;connectable=0;imageAspect=0;pointerEvents=0;" vertex="1" parent="1">
          <mxGeometry x="954" y="655" width="40" height="30" as="geometry" />
        </mxCell>
        <mxCell id="0Ns2KySrUpd4GxgdJG7j-251" value="0" style="text;html=1;align=center;verticalAlign=middle;resizable=0;points=[];autosize=1;strokeColor=none;fillColor=none;fontFamily=Helvetica;fontSize=11;fontColor=#999999;labelBackgroundColor=none;allowArrows=0;connectable=0;imageAspect=0;pointerEvents=0;deletable=0;" vertex="1" parent="1">
          <mxGeometry x="1012" y="695" width="30" height="30" as="geometry" />
        </mxCell>
        <mxCell id="0Ns2KySrUpd4GxgdJG7j-252" value="1" style="text;html=1;align=center;verticalAlign=middle;resizable=0;points=[];autosize=1;strokeColor=none;fillColor=none;fontFamily=Helvetica;fontSize=11;fontColor=#999999;labelBackgroundColor=none;allowArrows=0;connectable=0;imageAspect=0;pointerEvents=0;deletable=0;" vertex="1" parent="1">
          <mxGeometry x="1012" y="715" width="30" height="30" as="geometry" />
        </mxCell>
        <mxCell id="0Ns2KySrUpd4GxgdJG7j-254" value="" style="endArrow=classic;html=1;rounded=0;strokeColor=default;align=center;verticalAlign=middle;fontFamily=Helvetica;fontSize=11;fontColor=default;labelBackgroundColor=default;edgeStyle=orthogonalEdgeStyle;endSize=4;entryX=0.107;entryY=1;entryDx=0;entryDy=0;entryPerimeter=0;exitX=0.5;exitY=0;exitDx=0;exitDy=0;" edge="1" parent="1" source="0Ns2KySrUpd4GxgdJG7j-240">
          <mxGeometry width="50" height="50" relative="1" as="geometry">
            <mxPoint x="1060" y="720.4" as="sourcePoint" />
            <mxPoint x="1080" y="720.4" as="targetPoint" />
            <Array as="points">
              <mxPoint x="1070" y="721" />
            </Array>
          </mxGeometry>
        </mxCell>
        <mxCell id="0Ns2KySrUpd4GxgdJG7j-255" value="" style="endArrow=classic;html=1;rounded=0;strokeColor=default;align=center;verticalAlign=middle;fontFamily=Helvetica;fontSize=11;fontColor=default;labelBackgroundColor=default;edgeStyle=orthogonalEdgeStyle;endSize=4;" edge="1" parent="1">
          <mxGeometry width="50" height="50" relative="1" as="geometry">
            <mxPoint x="1050" y="800" as="sourcePoint" />
            <mxPoint x="1080" y="799.8" as="targetPoint" />
            <Array as="points">
              <mxPoint x="1060" y="799.8" />
              <mxPoint x="1060" y="799.8" />
            </Array>
          </mxGeometry>
        </mxCell>
        <mxCell id="0Ns2KySrUpd4GxgdJG7j-256" value="" style="shape=trapezoid;perimeter=trapezoidPerimeter;whiteSpace=wrap;html=1;fixedSize=1;rotation=90;size=14.103448275862092;" vertex="1" parent="1">
          <mxGeometry x="1005" y="785" width="60" height="30" as="geometry" />
        </mxCell>
        <mxCell id="0Ns2KySrUpd4GxgdJG7j-257" value="0" style="text;html=1;align=center;verticalAlign=middle;resizable=0;points=[];autosize=1;strokeColor=none;fillColor=none;fontFamily=Helvetica;fontSize=11;fontColor=#999999;labelBackgroundColor=none;allowArrows=0;connectable=0;imageAspect=0;pointerEvents=0;deletable=0;" vertex="1" parent="1">
          <mxGeometry x="1010" y="774.5" width="30" height="30" as="geometry" />
        </mxCell>
        <mxCell id="0Ns2KySrUpd4GxgdJG7j-258" value="1" style="text;html=1;align=center;verticalAlign=middle;resizable=0;points=[];autosize=1;strokeColor=none;fillColor=none;fontFamily=Helvetica;fontSize=11;fontColor=#999999;labelBackgroundColor=none;allowArrows=0;connectable=0;imageAspect=0;pointerEvents=0;deletable=0;" vertex="1" parent="1">
          <mxGeometry x="1010" y="793" width="30" height="30" as="geometry" />
        </mxCell>
        <mxCell id="0Ns2KySrUpd4GxgdJG7j-264" style="edgeStyle=orthogonalEdgeStyle;shape=connector;rounded=0;orthogonalLoop=1;jettySize=auto;html=1;exitX=0.5;exitY=0;exitDx=0;exitDy=0;strokeColor=default;align=center;verticalAlign=middle;fontFamily=Helvetica;fontSize=12;fontColor=default;labelBackgroundColor=none;autosize=1;resizable=1;endArrow=classic;endSize=4;" edge="1" parent="1" source="0Ns2KySrUpd4GxgdJG7j-259">
          <mxGeometry relative="1" as="geometry">
            <mxPoint x="1020" y="810" as="targetPoint" />
            <Array as="points">
              <mxPoint x="1000" y="820" />
              <mxPoint x="1000" y="810" />
            </Array>
          </mxGeometry>
        </mxCell>
        <mxCell id="0Ns2KySrUpd4GxgdJG7j-259" value="" style="shape=trapezoid;perimeter=trapezoidPerimeter;whiteSpace=wrap;html=1;fixedSize=1;rotation=90;size=14.103448275862092;" vertex="1" parent="1">
          <mxGeometry x="945" y="805" width="60" height="30" as="geometry" />
        </mxCell>
        <mxCell id="0Ns2KySrUpd4GxgdJG7j-260" value="0" style="text;html=1;align=center;verticalAlign=middle;resizable=0;points=[];autosize=1;strokeColor=none;fillColor=none;fontFamily=Helvetica;fontSize=11;fontColor=#999999;labelBackgroundColor=none;allowArrows=0;connectable=0;imageAspect=0;pointerEvents=0;deletable=0;" vertex="1" parent="1">
          <mxGeometry x="952" y="794.5" width="30" height="30" as="geometry" />
        </mxCell>
        <mxCell id="0Ns2KySrUpd4GxgdJG7j-261" value="1" style="text;html=1;align=center;verticalAlign=middle;resizable=0;points=[];autosize=1;strokeColor=none;fillColor=none;fontFamily=Helvetica;fontSize=11;fontColor=#999999;labelBackgroundColor=none;allowArrows=0;connectable=0;imageAspect=0;pointerEvents=0;deletable=0;" vertex="1" parent="1">
          <mxGeometry x="952" y="814.5" width="30" height="30" as="geometry" />
        </mxCell>
        <mxCell id="0Ns2KySrUpd4GxgdJG7j-270" style="edgeStyle=orthogonalEdgeStyle;shape=connector;rounded=0;orthogonalLoop=1;jettySize=auto;html=1;exitX=0.5;exitY=0;exitDx=0;exitDy=0;entryX=1;entryY=0.5;entryDx=0;entryDy=0;strokeColor=default;align=center;verticalAlign=middle;fontFamily=Helvetica;fontSize=12;fontColor=default;labelBackgroundColor=none;autosize=1;resizable=1;endArrow=classic;endSize=4;" edge="1" parent="1" source="0Ns2KySrUpd4GxgdJG7j-265" target="0Ns2KySrUpd4GxgdJG7j-259">
          <mxGeometry relative="1" as="geometry" />
        </mxCell>
        <mxCell id="0Ns2KySrUpd4GxgdJG7j-265" value="&lt;p style=&quot;line-height: 0%;&quot;&gt;&lt;b&gt;&amp;gt;&lt;/b&gt;&lt;/p&gt;&lt;p&gt;&lt;/p&gt;" style="rounded=1;whiteSpace=wrap;html=1;" vertex="1" parent="1">
          <mxGeometry x="960" y="860" width="30" height="30" as="geometry" />
        </mxCell>
        <mxCell id="0Ns2KySrUpd4GxgdJG7j-266" value="" style="endArrow=classic;html=1;rounded=0;strokeColor=#99004D;align=center;verticalAlign=middle;fontFamily=Helvetica;fontSize=11;fontColor=default;labelBackgroundColor=default;edgeStyle=orthogonalEdgeStyle;endSize=4;entryX=0.107;entryY=1;entryDx=0;entryDy=0;entryPerimeter=0;" edge="1" parent="1">
          <mxGeometry width="50" height="50" relative="1" as="geometry">
            <mxPoint x="890" y="870" as="sourcePoint" />
            <mxPoint x="960" y="870.5" as="targetPoint" />
            <Array as="points">
              <mxPoint x="950" y="870.5" />
              <mxPoint x="950" y="870.5" />
            </Array>
          </mxGeometry>
        </mxCell>
        <mxCell id="0Ns2KySrUpd4GxgdJG7j-268" value="" style="endArrow=classic;html=1;rounded=0;strokeColor=#4C0099;align=center;verticalAlign=middle;fontFamily=Helvetica;fontSize=11;fontColor=default;labelBackgroundColor=default;edgeStyle=orthogonalEdgeStyle;endSize=4;entryX=0.107;entryY=1;entryDx=0;entryDy=0;entryPerimeter=0;" edge="1" parent="1">
          <mxGeometry width="50" height="50" relative="1" as="geometry">
            <mxPoint x="880" y="880" as="sourcePoint" />
            <mxPoint x="960" y="880.01" as="targetPoint" />
            <Array as="points">
              <mxPoint x="950" y="880.01" />
              <mxPoint x="950" y="880.01" />
            </Array>
          </mxGeometry>
        </mxCell>
        <mxCell id="0Ns2KySrUpd4GxgdJG7j-271" value="(a&amp;gt;b)" style="text;html=1;align=center;verticalAlign=middle;resizable=0;points=[];autosize=1;strokeColor=none;fillColor=none;fontFamily=Helvetica;fontSize=7;fontColor=#999999;labelBackgroundColor=none;allowArrows=0;connectable=0;imageAspect=0;pointerEvents=0;deletable=1;" vertex="1" parent="1">
          <mxGeometry x="955" y="872" width="40" height="20" as="geometry" />
        </mxCell>
        <mxCell id="0Ns2KySrUpd4GxgdJG7j-272" value="b" style="text;html=1;align=center;verticalAlign=middle;resizable=0;points=[];autosize=1;strokeColor=none;fillColor=none;fontFamily=Helvetica;fontSize=9;fontColor=#999999;labelBackgroundColor=none;allowArrows=0;connectable=0;imageAspect=0;pointerEvents=0;deletable=0;" vertex="1" parent="1">
          <mxGeometry x="949" y="870" width="30" height="20" as="geometry" />
        </mxCell>
        <mxCell id="0Ns2KySrUpd4GxgdJG7j-273" value="a" style="text;html=1;align=center;verticalAlign=middle;resizable=0;points=[];autosize=1;strokeColor=none;fillColor=none;fontFamily=Helvetica;fontSize=9;fontColor=#999999;labelBackgroundColor=none;allowArrows=0;connectable=0;imageAspect=0;pointerEvents=0;deletable=0;" vertex="1" parent="1">
          <mxGeometry x="949" y="859" width="30" height="20" as="geometry" />
        </mxCell>
        <mxCell id="0Ns2KySrUpd4GxgdJG7j-274" value="" style="endArrow=classic;html=1;rounded=0;strokeColor=#99004D;align=center;verticalAlign=middle;fontFamily=Helvetica;fontSize=11;fontColor=default;labelBackgroundColor=default;edgeStyle=orthogonalEdgeStyle;endSize=4;entryX=0.107;entryY=1;entryDx=0;entryDy=0;entryPerimeter=0;" edge="1" parent="1">
          <mxGeometry width="50" height="50" relative="1" as="geometry">
            <mxPoint x="890" y="810" as="sourcePoint" />
            <mxPoint x="960" y="810" as="targetPoint" />
            <Array as="points">
              <mxPoint x="950" y="810" />
              <mxPoint x="950" y="810" />
            </Array>
          </mxGeometry>
        </mxCell>
        <mxCell id="0Ns2KySrUpd4GxgdJG7j-275" value="" style="endArrow=classic;html=1;rounded=0;strokeColor=default;align=center;verticalAlign=middle;fontFamily=Helvetica;fontSize=11;fontColor=default;labelBackgroundColor=default;edgeStyle=orthogonalEdgeStyle;endSize=4;entryX=0.107;entryY=1;entryDx=0;entryDy=0;entryPerimeter=0;" edge="1" parent="1">
          <mxGeometry width="50" height="50" relative="1" as="geometry">
            <mxPoint x="940" y="830.51" as="sourcePoint" />
            <mxPoint x="960" y="830.51" as="targetPoint" />
            <Array as="points">
              <mxPoint x="950" y="830.51" />
              <mxPoint x="950" y="830.51" />
            </Array>
          </mxGeometry>
        </mxCell>
        <mxCell id="0Ns2KySrUpd4GxgdJG7j-278" value="&lt;p style=&quot;line-height: 0%;&quot;&gt;&lt;b&gt;–&lt;/b&gt;&lt;/p&gt;&lt;p&gt;&lt;/p&gt;" style="rounded=1;whiteSpace=wrap;html=1;" vertex="1" parent="1">
          <mxGeometry x="910" y="819.5" width="30" height="30" as="geometry" />
        </mxCell>
        <mxCell id="0Ns2KySrUpd4GxgdJG7j-279" value="(a-b)" style="text;html=1;align=center;verticalAlign=middle;resizable=0;points=[];autosize=1;strokeColor=none;fillColor=none;fontFamily=Helvetica;fontSize=7;fontColor=#999999;labelBackgroundColor=none;allowArrows=0;connectable=0;imageAspect=0;pointerEvents=0;deletable=1;" vertex="1" parent="1">
          <mxGeometry x="905" y="830" width="40" height="20" as="geometry" />
        </mxCell>
        <mxCell id="0Ns2KySrUpd4GxgdJG7j-280" value="b" style="text;html=1;align=center;verticalAlign=middle;resizable=0;points=[];autosize=1;strokeColor=none;fillColor=none;fontFamily=Helvetica;fontSize=9;fontColor=#999999;labelBackgroundColor=none;allowArrows=0;connectable=0;imageAspect=0;pointerEvents=0;deletable=0;" vertex="1" parent="1">
          <mxGeometry x="899" y="828" width="30" height="20" as="geometry" />
        </mxCell>
        <mxCell id="0Ns2KySrUpd4GxgdJG7j-281" value="a" style="text;html=1;align=center;verticalAlign=middle;resizable=0;points=[];autosize=1;strokeColor=none;fillColor=none;fontFamily=Helvetica;fontSize=9;fontColor=#999999;labelBackgroundColor=none;allowArrows=0;connectable=0;imageAspect=0;pointerEvents=0;deletable=0;" vertex="1" parent="1">
          <mxGeometry x="899" y="817" width="30" height="20" as="geometry" />
        </mxCell>
        <mxCell id="0Ns2KySrUpd4GxgdJG7j-282" value="" style="endArrow=classic;html=1;rounded=0;strokeColor=#99004D;align=center;verticalAlign=middle;fontFamily=Helvetica;fontSize=11;fontColor=default;labelBackgroundColor=default;edgeStyle=orthogonalEdgeStyle;endSize=4;entryX=0.107;entryY=1;entryDx=0;entryDy=0;entryPerimeter=0;" edge="1" parent="1">
          <mxGeometry width="50" height="50" relative="1" as="geometry">
            <mxPoint x="890" y="829.5" as="sourcePoint" />
            <mxPoint x="910" y="829.5" as="targetPoint" />
            <Array as="points">
              <mxPoint x="900" y="829.5" />
              <mxPoint x="900" y="829.5" />
            </Array>
          </mxGeometry>
        </mxCell>
        <mxCell id="0Ns2KySrUpd4GxgdJG7j-286" value="" style="endArrow=classic;html=1;rounded=0;strokeColor=#99004D;align=center;verticalAlign=middle;fontFamily=Helvetica;fontSize=11;fontColor=default;labelBackgroundColor=default;edgeStyle=orthogonalEdgeStyle;endSize=4;" edge="1" parent="1">
          <mxGeometry width="50" height="50" relative="1" as="geometry">
            <mxPoint x="1060" y="930" as="sourcePoint" />
            <mxPoint x="1080" y="860" as="targetPoint" />
            <Array as="points">
              <mxPoint x="1060" y="860" />
              <mxPoint x="1060" y="860" />
            </Array>
          </mxGeometry>
        </mxCell>
        <mxCell id="0Ns2KySrUpd4GxgdJG7j-287" value="" style="endArrow=classic;html=1;rounded=0;strokeColor=#99004D;align=center;verticalAlign=middle;fontFamily=Helvetica;fontSize=11;fontColor=default;labelBackgroundColor=default;edgeStyle=orthogonalEdgeStyle;endSize=4;" edge="1" parent="1">
          <mxGeometry width="50" height="50" relative="1" as="geometry">
            <mxPoint x="1060" y="890" as="sourcePoint" />
            <mxPoint x="1080" y="890" as="targetPoint" />
            <Array as="points">
              <mxPoint x="1060" y="890" />
              <mxPoint x="1060" y="890" />
            </Array>
          </mxGeometry>
        </mxCell>
        <mxCell id="0Ns2KySrUpd4GxgdJG7j-288" value="c" style="text;html=1;align=center;verticalAlign=middle;resizable=0;points=[];autosize=1;strokeColor=none;fillColor=none;fontFamily=Helvetica;fontSize=14;fontColor=#009900;" vertex="1" parent="1">
          <mxGeometry x="1191" y="775" width="30" height="30" as="geometry" />
        </mxCell>
        <mxCell id="0Ns2KySrUpd4GxgdJG7j-289" value="0" style="text;html=1;align=center;verticalAlign=middle;resizable=0;points=[];autosize=1;strokeColor=none;fillColor=none;fontFamily=Helvetica;fontSize=11;fontColor=#999999;labelBackgroundColor=none;allowArrows=0;connectable=0;imageAspect=0;pointerEvents=0;deletable=0;" vertex="1" parent="1">
          <mxGeometry x="1072" y="705.5" width="30" height="30" as="geometry" />
        </mxCell>
        <mxCell id="0Ns2KySrUpd4GxgdJG7j-290" value="1" style="text;html=1;align=center;verticalAlign=middle;resizable=0;points=[];autosize=1;strokeColor=none;fillColor=none;fontFamily=Helvetica;fontSize=11;fontColor=#999999;labelBackgroundColor=none;allowArrows=0;connectable=0;imageAspect=0;pointerEvents=0;deletable=0;" vertex="1" parent="1">
          <mxGeometry x="1072" y="785" width="30" height="30" as="geometry" />
        </mxCell>
        <mxCell id="0Ns2KySrUpd4GxgdJG7j-291" value="2" style="text;html=1;align=center;verticalAlign=middle;resizable=0;points=[];autosize=1;strokeColor=none;fillColor=none;fontFamily=Helvetica;fontSize=11;fontColor=#999999;labelBackgroundColor=none;allowArrows=0;connectable=0;imageAspect=0;pointerEvents=0;deletable=0;" vertex="1" parent="1">
          <mxGeometry x="1072" y="844.5" width="30" height="30" as="geometry" />
        </mxCell>
        <mxCell id="0Ns2KySrUpd4GxgdJG7j-292" value="3" style="text;html=1;align=center;verticalAlign=middle;resizable=0;points=[];autosize=1;strokeColor=none;fillColor=none;fontFamily=Helvetica;fontSize=11;fontColor=#999999;labelBackgroundColor=none;allowArrows=0;connectable=0;imageAspect=0;pointerEvents=0;deletable=0;" vertex="1" parent="1">
          <mxGeometry x="1072" y="874.5" width="30" height="30" as="geometry" />
        </mxCell>
        <mxCell id="0Ns2KySrUpd4GxgdJG7j-293" value="" style="endArrow=classic;html=1;rounded=0;strokeColor=default;align=center;verticalAlign=middle;fontFamily=Helvetica;fontSize=11;fontColor=default;labelBackgroundColor=default;edgeStyle=orthogonalEdgeStyle;endSize=4;" edge="1" parent="1">
          <mxGeometry width="50" height="50" relative="1" as="geometry">
            <mxPoint x="1100" y="630" as="sourcePoint" />
            <mxPoint x="1100" y="690" as="targetPoint" />
            <Array as="points">
              <mxPoint x="1099.83" y="674" />
            </Array>
          </mxGeometry>
        </mxCell>
        <mxCell id="0Ns2KySrUpd4GxgdJG7j-294" value="state" style="text;html=1;align=center;verticalAlign=middle;resizable=0;points=[];autosize=1;strokeColor=none;fillColor=none;fontFamily=Helvetica;fontSize=12;fontColor=#009900;" vertex="1" parent="1">
          <mxGeometry x="1037" y="613" width="50" height="30" as="geometry" />
        </mxCell>
        <mxCell id="0Ns2KySrUpd4GxgdJG7j-297" value="clk" style="text;html=1;align=center;verticalAlign=middle;resizable=0;points=[];autosize=1;strokeColor=none;fillColor=none;fontFamily=Helvetica;fontSize=12;fontColor=default;" vertex="1" parent="1">
          <mxGeometry x="1150" y="862" width="40" height="30" as="geometry" />
        </mxCell>
        <mxCell id="0Ns2KySrUpd4GxgdJG7j-298" value="" style="shape=trapezoid;perimeter=trapezoidPerimeter;whiteSpace=wrap;html=1;fixedSize=1;rotation=90;snapToPoint=1;" vertex="1" parent="1">
          <mxGeometry x="1350" y="780" width="240" height="40" as="geometry" />
        </mxCell>
        <mxCell id="0Ns2KySrUpd4GxgdJG7j-299" value="&lt;p style=&quot;line-height: 0%;&quot;&gt;&lt;b&gt;DFF&lt;/b&gt;&lt;/p&gt;&lt;p&gt;&lt;/p&gt;" style="rounded=1;whiteSpace=wrap;html=1;strokeColor=default;align=center;verticalAlign=middle;fontFamily=Helvetica;fontSize=12;fontColor=default;fillColor=default;" vertex="1" parent="1">
          <mxGeometry x="1510" y="790" width="60" height="60" as="geometry" />
        </mxCell>
        <mxCell id="0Ns2KySrUpd4GxgdJG7j-300" value="" style="triangle;whiteSpace=wrap;html=1;rotation=-90;strokeColor=default;align=center;verticalAlign=middle;fontFamily=Helvetica;fontSize=12;fontColor=default;fillColor=default;" vertex="1" parent="1">
          <mxGeometry x="1536" y="838.5" width="8" height="14.5" as="geometry" />
        </mxCell>
        <mxCell id="0Ns2KySrUpd4GxgdJG7j-301" value="D" style="text;html=1;align=center;verticalAlign=middle;resizable=0;points=[];autosize=1;strokeColor=none;fillColor=none;fontColor=#999999;connectable=0;allowArrows=0;fontSize=12;pointerEvents=1;fontFamily=Helvetica;" vertex="1" parent="1">
          <mxGeometry x="1503" y="786" width="30" height="30" as="geometry" />
        </mxCell>
        <mxCell id="0Ns2KySrUpd4GxgdJG7j-302" value="Q" style="text;html=1;align=center;verticalAlign=middle;resizable=0;points=[];autosize=1;strokeColor=none;fillColor=none;fontColor=#999999;connectable=0;allowArrows=0;fontSize=12;pointerEvents=1;fontFamily=Helvetica;" vertex="1" parent="1">
          <mxGeometry x="1547" y="786" width="30" height="30" as="geometry" />
        </mxCell>
        <mxCell id="0Ns2KySrUpd4GxgdJG7j-303" style="edgeStyle=orthogonalEdgeStyle;shape=connector;rounded=0;orthogonalLoop=1;jettySize=auto;html=1;exitX=0.5;exitY=0;exitDx=0;exitDy=0;strokeColor=default;align=center;verticalAlign=middle;fontFamily=Helvetica;fontSize=11;fontColor=default;labelBackgroundColor=default;endArrow=classic;endSize=4;autosize=1;resizable=1;" edge="1" parent="1">
          <mxGeometry relative="1" as="geometry">
            <mxPoint x="1510" y="800" as="targetPoint" />
            <mxPoint x="1490" y="800" as="sourcePoint" />
          </mxGeometry>
        </mxCell>
        <mxCell id="0Ns2KySrUpd4GxgdJG7j-304" value="" style="endArrow=classic;html=1;rounded=0;strokeColor=default;align=center;verticalAlign=middle;fontFamily=Helvetica;fontSize=11;fontColor=default;labelBackgroundColor=none;autosize=1;resizable=0;edgeStyle=orthogonalEdgeStyle;endSize=4;" edge="1" parent="1">
          <mxGeometry width="50" height="50" relative="1" as="geometry">
            <mxPoint x="1540" y="870" as="sourcePoint" />
            <mxPoint x="1540" y="850" as="targetPoint" />
            <Array as="points">
              <mxPoint x="1540" y="860" />
              <mxPoint x="1540" y="860" />
            </Array>
          </mxGeometry>
        </mxCell>
        <mxCell id="0Ns2KySrUpd4GxgdJG7j-306" value="" style="shape=trapezoid;perimeter=trapezoidPerimeter;whiteSpace=wrap;html=1;fixedSize=1;rotation=90;size=14.103448275862092;" vertex="1" parent="1">
          <mxGeometry x="1375" y="705.5" width="60" height="30" as="geometry" />
        </mxCell>
        <mxCell id="0Ns2KySrUpd4GxgdJG7j-307" value="" style="endArrow=classic;html=1;rounded=0;strokeColor=default;align=center;verticalAlign=middle;fontFamily=Helvetica;fontSize=11;fontColor=default;labelBackgroundColor=default;edgeStyle=orthogonalEdgeStyle;endSize=4;entryX=0;entryY=0.5;entryDx=0;entryDy=0;" edge="1" parent="1" target="0Ns2KySrUpd4GxgdJG7j-306">
          <mxGeometry width="50" height="50" relative="1" as="geometry">
            <mxPoint x="1405" y="680" as="sourcePoint" />
            <mxPoint x="1410" y="675.16" as="targetPoint" />
            <Array as="points">
              <mxPoint x="1405" y="680" />
            </Array>
          </mxGeometry>
        </mxCell>
        <mxCell id="0Ns2KySrUpd4GxgdJG7j-308" value="" style="endArrow=classic;html=1;rounded=0;strokeColor=default;align=center;verticalAlign=middle;fontFamily=Helvetica;fontSize=11;fontColor=default;labelBackgroundColor=default;edgeStyle=orthogonalEdgeStyle;endSize=4;entryX=0.107;entryY=1;entryDx=0;entryDy=0;entryPerimeter=0;" edge="1" parent="1">
          <mxGeometry width="50" height="50" relative="1" as="geometry">
            <mxPoint x="1370" y="709.5" as="sourcePoint" />
            <mxPoint x="1390" y="709.5" as="targetPoint" />
            <Array as="points">
              <mxPoint x="1380" y="709.5" />
              <mxPoint x="1380" y="709.5" />
            </Array>
          </mxGeometry>
        </mxCell>
        <mxCell id="0Ns2KySrUpd4GxgdJG7j-309" value="" style="endArrow=classic;html=1;rounded=0;strokeColor=default;align=center;verticalAlign=middle;fontFamily=Helvetica;fontSize=11;fontColor=default;labelBackgroundColor=default;edgeStyle=orthogonalEdgeStyle;endSize=4;entryX=0.107;entryY=1;entryDx=0;entryDy=0;entryPerimeter=0;" edge="1" parent="1">
          <mxGeometry width="50" height="50" relative="1" as="geometry">
            <mxPoint x="1370" y="730.01" as="sourcePoint" />
            <mxPoint x="1390" y="730.01" as="targetPoint" />
            <Array as="points">
              <mxPoint x="1380" y="730.01" />
              <mxPoint x="1380" y="730.01" />
            </Array>
          </mxGeometry>
        </mxCell>
        <mxCell id="0Ns2KySrUpd4GxgdJG7j-310" value="16&#39;d0" style="text;html=1;align=center;verticalAlign=middle;resizable=0;points=[];autosize=1;strokeColor=none;fillColor=none;fontFamily=Helvetica;fontSize=11;fontColor=default;labelBackgroundColor=none;allowArrows=0;connectable=0;imageAspect=0;pointerEvents=0;deletable=0;" vertex="1" parent="1">
          <mxGeometry x="1329" y="694" width="50" height="30" as="geometry" />
        </mxCell>
        <mxCell id="0Ns2KySrUpd4GxgdJG7j-311" value="b" style="text;html=1;align=center;verticalAlign=middle;resizable=0;points=[];autosize=1;strokeColor=none;fillColor=none;fontFamily=Helvetica;fontSize=11;fontColor=default;labelBackgroundColor=none;allowArrows=0;connectable=0;imageAspect=0;pointerEvents=0;deletable=0;" vertex="1" parent="1">
          <mxGeometry x="1349" y="714" width="30" height="30" as="geometry" />
        </mxCell>
        <mxCell id="0Ns2KySrUpd4GxgdJG7j-312" value="&lt;p style=&quot;line-height: 0%;&quot;&gt;&lt;b&gt;==&lt;/b&gt;&lt;/p&gt;&lt;p&gt;&lt;/p&gt;" style="rounded=1;whiteSpace=wrap;html=1;" vertex="1" parent="1">
          <mxGeometry x="1390" y="650" width="30" height="30" as="geometry" />
        </mxCell>
        <mxCell id="0Ns2KySrUpd4GxgdJG7j-313" value="" style="endArrow=classic;html=1;rounded=0;strokeColor=default;align=center;verticalAlign=middle;fontFamily=Helvetica;fontSize=11;fontColor=default;labelBackgroundColor=default;edgeStyle=orthogonalEdgeStyle;endSize=4;" edge="1" parent="1">
          <mxGeometry width="50" height="50" relative="1" as="geometry">
            <mxPoint x="1010" y="660" as="sourcePoint" />
            <mxPoint x="1390" y="660" as="targetPoint" />
            <Array as="points">
              <mxPoint x="1005" y="660" />
              <mxPoint x="1005" y="640" />
              <mxPoint x="1360" y="640" />
              <mxPoint x="1360" y="660" />
            </Array>
          </mxGeometry>
        </mxCell>
        <mxCell id="0Ns2KySrUpd4GxgdJG7j-315" value="" style="endArrow=classic;html=1;rounded=0;strokeColor=default;align=center;verticalAlign=middle;fontFamily=Helvetica;fontSize=11;fontColor=default;labelBackgroundColor=default;edgeStyle=orthogonalEdgeStyle;endSize=4;entryX=0.107;entryY=1;entryDx=0;entryDy=0;entryPerimeter=0;" edge="1" parent="1">
          <mxGeometry width="50" height="50" relative="1" as="geometry">
            <mxPoint x="1370" y="670.01" as="sourcePoint" />
            <mxPoint x="1390" y="670.01" as="targetPoint" />
            <Array as="points">
              <mxPoint x="1380" y="670.01" />
              <mxPoint x="1380" y="670.01" />
            </Array>
          </mxGeometry>
        </mxCell>
        <mxCell id="0Ns2KySrUpd4GxgdJG7j-316" value="CAL" style="text;html=1;align=center;verticalAlign=middle;resizable=0;points=[];autosize=1;strokeColor=none;fillColor=none;fontFamily=Helvetica;fontSize=11;fontColor=#FF8000;labelBackgroundColor=none;allowArrows=0;connectable=0;imageAspect=0;pointerEvents=0;" vertex="1" parent="1">
          <mxGeometry x="1337" y="655" width="40" height="30" as="geometry" />
        </mxCell>
        <mxCell id="0Ns2KySrUpd4GxgdJG7j-317" value="0" style="text;html=1;align=center;verticalAlign=middle;resizable=0;points=[];autosize=1;strokeColor=none;fillColor=none;fontFamily=Helvetica;fontSize=11;fontColor=#999999;labelBackgroundColor=none;allowArrows=0;connectable=0;imageAspect=0;pointerEvents=0;deletable=0;" vertex="1" parent="1">
          <mxGeometry x="1382" y="695" width="30" height="30" as="geometry" />
        </mxCell>
        <mxCell id="0Ns2KySrUpd4GxgdJG7j-318" value="1" style="text;html=1;align=center;verticalAlign=middle;resizable=0;points=[];autosize=1;strokeColor=none;fillColor=none;fontFamily=Helvetica;fontSize=11;fontColor=#999999;labelBackgroundColor=none;allowArrows=0;connectable=0;imageAspect=0;pointerEvents=0;deletable=0;" vertex="1" parent="1">
          <mxGeometry x="1382" y="715" width="30" height="30" as="geometry" />
        </mxCell>
        <mxCell id="0Ns2KySrUpd4GxgdJG7j-319" value="" style="endArrow=classic;html=1;rounded=0;strokeColor=default;align=center;verticalAlign=middle;fontFamily=Helvetica;fontSize=11;fontColor=default;labelBackgroundColor=default;edgeStyle=orthogonalEdgeStyle;endSize=4;entryX=0.107;entryY=1;entryDx=0;entryDy=0;entryPerimeter=0;exitX=0.5;exitY=0;exitDx=0;exitDy=0;" edge="1" parent="1" source="0Ns2KySrUpd4GxgdJG7j-306">
          <mxGeometry width="50" height="50" relative="1" as="geometry">
            <mxPoint x="1430" y="720.4" as="sourcePoint" />
            <mxPoint x="1450" y="720.4" as="targetPoint" />
            <Array as="points">
              <mxPoint x="1440" y="721" />
            </Array>
          </mxGeometry>
        </mxCell>
        <mxCell id="0Ns2KySrUpd4GxgdJG7j-320" value="" style="endArrow=classic;html=1;rounded=0;strokeColor=default;align=center;verticalAlign=middle;fontFamily=Helvetica;fontSize=11;fontColor=default;labelBackgroundColor=default;edgeStyle=orthogonalEdgeStyle;endSize=4;" edge="1" parent="1">
          <mxGeometry width="50" height="50" relative="1" as="geometry">
            <mxPoint x="1420" y="800" as="sourcePoint" />
            <mxPoint x="1450" y="799.8" as="targetPoint" />
            <Array as="points">
              <mxPoint x="1430" y="799.8" />
              <mxPoint x="1430" y="799.8" />
            </Array>
          </mxGeometry>
        </mxCell>
        <mxCell id="0Ns2KySrUpd4GxgdJG7j-321" value="" style="shape=trapezoid;perimeter=trapezoidPerimeter;whiteSpace=wrap;html=1;fixedSize=1;rotation=90;size=14.103448275862092;" vertex="1" parent="1">
          <mxGeometry x="1375" y="785" width="60" height="30" as="geometry" />
        </mxCell>
        <mxCell id="0Ns2KySrUpd4GxgdJG7j-322" value="0" style="text;html=1;align=center;verticalAlign=middle;resizable=0;points=[];autosize=1;strokeColor=none;fillColor=none;fontFamily=Helvetica;fontSize=11;fontColor=#999999;labelBackgroundColor=none;allowArrows=0;connectable=0;imageAspect=0;pointerEvents=0;deletable=0;" vertex="1" parent="1">
          <mxGeometry x="1381" y="766.5" width="30" height="30" as="geometry" />
        </mxCell>
        <mxCell id="0Ns2KySrUpd4GxgdJG7j-323" value="1" style="text;html=1;align=center;verticalAlign=middle;resizable=0;points=[];autosize=1;strokeColor=none;fillColor=none;fontFamily=Helvetica;fontSize=11;fontColor=#999999;labelBackgroundColor=none;allowArrows=0;connectable=0;imageAspect=0;pointerEvents=0;deletable=0;" vertex="1" parent="1">
          <mxGeometry x="1381" y="803" width="30" height="30" as="geometry" />
        </mxCell>
        <mxCell id="0Ns2KySrUpd4GxgdJG7j-324" style="edgeStyle=orthogonalEdgeStyle;shape=connector;rounded=0;orthogonalLoop=1;jettySize=auto;html=1;exitX=0.5;exitY=0;exitDx=0;exitDy=0;strokeColor=default;align=center;verticalAlign=middle;fontFamily=Helvetica;fontSize=12;fontColor=default;labelBackgroundColor=none;autosize=1;resizable=1;endArrow=classic;endSize=4;" edge="1" parent="1" source="0Ns2KySrUpd4GxgdJG7j-325">
          <mxGeometry relative="1" as="geometry">
            <mxPoint x="1390" y="820" as="targetPoint" />
            <Array as="points">
              <mxPoint x="1380" y="820" />
              <mxPoint x="1380" y="820" />
            </Array>
          </mxGeometry>
        </mxCell>
        <mxCell id="0Ns2KySrUpd4GxgdJG7j-325" value="" style="shape=trapezoid;perimeter=trapezoidPerimeter;whiteSpace=wrap;html=1;fixedSize=1;rotation=90;size=14.103448275862092;" vertex="1" parent="1">
          <mxGeometry x="1315" y="805" width="60" height="30" as="geometry" />
        </mxCell>
        <mxCell id="0Ns2KySrUpd4GxgdJG7j-326" value="0" style="text;html=1;align=center;verticalAlign=middle;resizable=0;points=[];autosize=1;strokeColor=none;fillColor=none;fontFamily=Helvetica;fontSize=11;fontColor=#999999;labelBackgroundColor=none;allowArrows=0;connectable=0;imageAspect=0;pointerEvents=0;deletable=0;" vertex="1" parent="1">
          <mxGeometry x="1322" y="794.5" width="30" height="30" as="geometry" />
        </mxCell>
        <mxCell id="0Ns2KySrUpd4GxgdJG7j-327" value="1" style="text;html=1;align=center;verticalAlign=middle;resizable=0;points=[];autosize=1;strokeColor=none;fillColor=none;fontFamily=Helvetica;fontSize=11;fontColor=#999999;labelBackgroundColor=none;allowArrows=0;connectable=0;imageAspect=0;pointerEvents=0;deletable=0;" vertex="1" parent="1">
          <mxGeometry x="1322" y="814.5" width="30" height="30" as="geometry" />
        </mxCell>
        <mxCell id="0Ns2KySrUpd4GxgdJG7j-328" value="" style="endArrow=classic;html=1;rounded=0;strokeColor=#4C0099;align=center;verticalAlign=middle;fontFamily=Helvetica;fontSize=11;fontColor=default;labelBackgroundColor=default;edgeStyle=orthogonalEdgeStyle;endSize=4;entryX=0.107;entryY=1;entryDx=0;entryDy=0;entryPerimeter=0;" edge="1" parent="1">
          <mxGeometry width="50" height="50" relative="1" as="geometry">
            <mxPoint x="1260" y="940" as="sourcePoint" />
            <mxPoint x="1390" y="780.01" as="targetPoint" />
            <Array as="points">
              <mxPoint x="1380" y="780.01" />
              <mxPoint x="1380" y="780.01" />
            </Array>
          </mxGeometry>
        </mxCell>
        <mxCell id="0Ns2KySrUpd4GxgdJG7j-330" style="edgeStyle=orthogonalEdgeStyle;shape=connector;rounded=0;orthogonalLoop=1;jettySize=auto;html=1;exitX=0.5;exitY=0;exitDx=0;exitDy=0;entryX=1;entryY=0.5;entryDx=0;entryDy=0;strokeColor=default;align=center;verticalAlign=middle;fontFamily=Helvetica;fontSize=12;fontColor=default;labelBackgroundColor=none;autosize=1;resizable=1;endArrow=classic;endSize=4;" edge="1" parent="1" source="0Ns2KySrUpd4GxgdJG7j-331" target="0Ns2KySrUpd4GxgdJG7j-325">
          <mxGeometry relative="1" as="geometry" />
        </mxCell>
        <mxCell id="0Ns2KySrUpd4GxgdJG7j-331" value="&lt;p style=&quot;line-height: 0%;&quot;&gt;&lt;b&gt;&amp;gt;&lt;/b&gt;&lt;/p&gt;&lt;p&gt;&lt;/p&gt;" style="rounded=1;whiteSpace=wrap;html=1;" vertex="1" parent="1">
          <mxGeometry x="1330" y="860" width="30" height="30" as="geometry" />
        </mxCell>
        <mxCell id="0Ns2KySrUpd4GxgdJG7j-332" value="" style="endArrow=classic;html=1;rounded=0;strokeColor=#99004D;align=center;verticalAlign=middle;fontFamily=Helvetica;fontSize=11;fontColor=default;labelBackgroundColor=default;edgeStyle=orthogonalEdgeStyle;endSize=4;entryX=0.107;entryY=1;entryDx=0;entryDy=0;entryPerimeter=0;" edge="1" parent="1">
          <mxGeometry width="50" height="50" relative="1" as="geometry">
            <mxPoint x="1210" y="870" as="sourcePoint" />
            <mxPoint x="1330" y="870.5" as="targetPoint" />
            <Array as="points">
              <mxPoint x="1320" y="870.5" />
              <mxPoint x="1320" y="870.5" />
            </Array>
          </mxGeometry>
        </mxCell>
        <mxCell id="0Ns2KySrUpd4GxgdJG7j-334" value="" style="endArrow=classic;html=1;rounded=0;strokeColor=#4C0099;align=center;verticalAlign=middle;fontFamily=Helvetica;fontSize=11;fontColor=default;labelBackgroundColor=default;edgeStyle=orthogonalEdgeStyle;endSize=4;entryX=0.107;entryY=1;entryDx=0;entryDy=0;entryPerimeter=0;" edge="1" parent="1">
          <mxGeometry width="50" height="50" relative="1" as="geometry">
            <mxPoint x="1260" y="880" as="sourcePoint" />
            <mxPoint x="1330" y="880.01" as="targetPoint" />
            <Array as="points">
              <mxPoint x="1320" y="880.01" />
              <mxPoint x="1320" y="880.01" />
            </Array>
          </mxGeometry>
        </mxCell>
        <mxCell id="0Ns2KySrUpd4GxgdJG7j-336" value="(a&amp;gt;b)" style="text;html=1;align=center;verticalAlign=middle;resizable=0;points=[];autosize=1;strokeColor=none;fillColor=none;fontFamily=Helvetica;fontSize=7;fontColor=#999999;labelBackgroundColor=none;allowArrows=0;connectable=0;imageAspect=0;pointerEvents=0;deletable=1;" vertex="1" parent="1">
          <mxGeometry x="1325" y="872" width="40" height="20" as="geometry" />
        </mxCell>
        <mxCell id="0Ns2KySrUpd4GxgdJG7j-337" value="b" style="text;html=1;align=center;verticalAlign=middle;resizable=0;points=[];autosize=1;strokeColor=none;fillColor=none;fontFamily=Helvetica;fontSize=9;fontColor=#999999;labelBackgroundColor=none;allowArrows=0;connectable=0;imageAspect=0;pointerEvents=0;deletable=0;" vertex="1" parent="1">
          <mxGeometry x="1319" y="870" width="30" height="20" as="geometry" />
        </mxCell>
        <mxCell id="0Ns2KySrUpd4GxgdJG7j-338" value="a" style="text;html=1;align=center;verticalAlign=middle;resizable=0;points=[];autosize=1;strokeColor=none;fillColor=none;fontFamily=Helvetica;fontSize=9;fontColor=#999999;labelBackgroundColor=none;allowArrows=0;connectable=0;imageAspect=0;pointerEvents=0;deletable=0;" vertex="1" parent="1">
          <mxGeometry x="1319" y="859" width="30" height="20" as="geometry" />
        </mxCell>
        <mxCell id="0Ns2KySrUpd4GxgdJG7j-339" value="" style="endArrow=classic;html=1;rounded=0;strokeColor=default;align=center;verticalAlign=middle;fontFamily=Helvetica;fontSize=11;fontColor=default;labelBackgroundColor=default;edgeStyle=orthogonalEdgeStyle;endSize=4;entryX=0.107;entryY=1;entryDx=0;entryDy=0;entryPerimeter=0;" edge="1" parent="1">
          <mxGeometry width="50" height="50" relative="1" as="geometry">
            <mxPoint x="1310" y="810" as="sourcePoint" />
            <mxPoint x="1330" y="810" as="targetPoint" />
            <Array as="points">
              <mxPoint x="1320" y="810" />
              <mxPoint x="1320" y="810" />
            </Array>
          </mxGeometry>
        </mxCell>
        <mxCell id="0Ns2KySrUpd4GxgdJG7j-340" value="" style="endArrow=classic;html=1;rounded=0;strokeColor=#4C0099;align=center;verticalAlign=middle;fontFamily=Helvetica;fontSize=11;fontColor=default;labelBackgroundColor=default;edgeStyle=orthogonalEdgeStyle;endSize=4;entryX=0.107;entryY=1;entryDx=0;entryDy=0;entryPerimeter=0;" edge="1" parent="1">
          <mxGeometry width="50" height="50" relative="1" as="geometry">
            <mxPoint x="1260" y="830" as="sourcePoint" />
            <mxPoint x="1330" y="830.51" as="targetPoint" />
            <Array as="points">
              <mxPoint x="1320" y="830.51" />
              <mxPoint x="1320" y="830.51" />
            </Array>
          </mxGeometry>
        </mxCell>
        <mxCell id="0Ns2KySrUpd4GxgdJG7j-342" value="&lt;p style=&quot;line-height: 0%;&quot;&gt;&lt;b&gt;–&lt;/b&gt;&lt;/p&gt;&lt;p&gt;&lt;/p&gt;" style="rounded=1;whiteSpace=wrap;html=1;" vertex="1" parent="1">
          <mxGeometry x="1280" y="790" width="30" height="30" as="geometry" />
        </mxCell>
        <mxCell id="0Ns2KySrUpd4GxgdJG7j-343" value="(a-b)" style="text;html=1;align=center;verticalAlign=middle;resizable=0;points=[];autosize=1;strokeColor=none;fillColor=none;fontFamily=Helvetica;fontSize=7;fontColor=#999999;labelBackgroundColor=none;allowArrows=0;connectable=0;imageAspect=0;pointerEvents=0;deletable=1;" vertex="1" parent="1">
          <mxGeometry x="1275" y="800.5" width="40" height="20" as="geometry" />
        </mxCell>
        <mxCell id="0Ns2KySrUpd4GxgdJG7j-344" value="b" style="text;html=1;align=center;verticalAlign=middle;resizable=0;points=[];autosize=1;strokeColor=none;fillColor=none;fontFamily=Helvetica;fontSize=9;fontColor=#999999;labelBackgroundColor=none;allowArrows=0;connectable=0;imageAspect=0;pointerEvents=0;deletable=0;" vertex="1" parent="1">
          <mxGeometry x="1269" y="798.5" width="30" height="20" as="geometry" />
        </mxCell>
        <mxCell id="0Ns2KySrUpd4GxgdJG7j-345" value="a" style="text;html=1;align=center;verticalAlign=middle;resizable=0;points=[];autosize=1;strokeColor=none;fillColor=none;fontFamily=Helvetica;fontSize=9;fontColor=#999999;labelBackgroundColor=none;allowArrows=0;connectable=0;imageAspect=0;pointerEvents=0;deletable=0;" vertex="1" parent="1">
          <mxGeometry x="1269" y="787.5" width="30" height="20" as="geometry" />
        </mxCell>
        <mxCell id="0Ns2KySrUpd4GxgdJG7j-348" value="" style="endArrow=classic;html=1;rounded=0;strokeColor=#4C0099;align=center;verticalAlign=middle;fontFamily=Helvetica;fontSize=11;fontColor=default;labelBackgroundColor=default;edgeStyle=orthogonalEdgeStyle;endSize=4;entryX=0.107;entryY=1;entryDx=0;entryDy=0;entryPerimeter=0;" edge="1" parent="1">
          <mxGeometry width="50" height="50" relative="1" as="geometry">
            <mxPoint x="1260" y="809.51" as="sourcePoint" />
            <mxPoint x="1280" y="809.51" as="targetPoint" />
            <Array as="points">
              <mxPoint x="1270" y="809.51" />
              <mxPoint x="1270" y="809.51" />
            </Array>
          </mxGeometry>
        </mxCell>
        <mxCell id="0Ns2KySrUpd4GxgdJG7j-350" value="" style="endArrow=classic;html=1;rounded=0;strokeColor=#4C0099;align=center;verticalAlign=middle;fontFamily=Helvetica;fontSize=11;fontColor=default;labelBackgroundColor=default;edgeStyle=orthogonalEdgeStyle;endSize=4;" edge="1" parent="1">
          <mxGeometry width="50" height="50" relative="1" as="geometry">
            <mxPoint x="1430" y="940" as="sourcePoint" />
            <mxPoint x="1450" y="860" as="targetPoint" />
            <Array as="points">
              <mxPoint x="1430" y="860" />
              <mxPoint x="1430" y="860" />
            </Array>
          </mxGeometry>
        </mxCell>
        <mxCell id="0Ns2KySrUpd4GxgdJG7j-351" value="" style="endArrow=classic;html=1;rounded=0;strokeColor=#4C0099;align=center;verticalAlign=middle;fontFamily=Helvetica;fontSize=11;fontColor=default;labelBackgroundColor=default;edgeStyle=orthogonalEdgeStyle;endSize=4;" edge="1" parent="1">
          <mxGeometry width="50" height="50" relative="1" as="geometry">
            <mxPoint x="1430" y="890" as="sourcePoint" />
            <mxPoint x="1450" y="890" as="targetPoint" />
            <Array as="points">
              <mxPoint x="1430" y="890" />
              <mxPoint x="1430" y="890" />
            </Array>
          </mxGeometry>
        </mxCell>
        <mxCell id="0Ns2KySrUpd4GxgdJG7j-352" value="d" style="text;html=1;align=center;verticalAlign=middle;resizable=0;points=[];autosize=1;strokeColor=none;fillColor=none;fontFamily=Helvetica;fontSize=14;fontColor=#009900;connectable=1;pointerEvents=0;" vertex="1" parent="1">
          <mxGeometry x="1561" y="775" width="30" height="30" as="geometry" />
        </mxCell>
        <mxCell id="0Ns2KySrUpd4GxgdJG7j-353" value="0" style="text;html=1;align=center;verticalAlign=middle;resizable=0;points=[];autosize=1;strokeColor=none;fillColor=none;fontFamily=Helvetica;fontSize=11;fontColor=#999999;labelBackgroundColor=none;allowArrows=0;connectable=0;imageAspect=0;pointerEvents=0;deletable=0;" vertex="1" parent="1">
          <mxGeometry x="1442" y="705.5" width="30" height="30" as="geometry" />
        </mxCell>
        <mxCell id="0Ns2KySrUpd4GxgdJG7j-354" value="1" style="text;html=1;align=center;verticalAlign=middle;resizable=0;points=[];autosize=1;strokeColor=none;fillColor=none;fontFamily=Helvetica;fontSize=11;fontColor=#999999;labelBackgroundColor=none;allowArrows=0;connectable=0;imageAspect=0;pointerEvents=0;deletable=0;" vertex="1" parent="1">
          <mxGeometry x="1442" y="785" width="30" height="30" as="geometry" />
        </mxCell>
        <mxCell id="0Ns2KySrUpd4GxgdJG7j-355" value="2" style="text;html=1;align=center;verticalAlign=middle;resizable=0;points=[];autosize=1;strokeColor=none;fillColor=none;fontFamily=Helvetica;fontSize=11;fontColor=#999999;labelBackgroundColor=none;allowArrows=0;connectable=0;imageAspect=0;pointerEvents=0;deletable=0;" vertex="1" parent="1">
          <mxGeometry x="1442" y="844.5" width="30" height="30" as="geometry" />
        </mxCell>
        <mxCell id="0Ns2KySrUpd4GxgdJG7j-356" value="3" style="text;html=1;align=center;verticalAlign=middle;resizable=0;points=[];autosize=1;strokeColor=none;fillColor=none;fontFamily=Helvetica;fontSize=11;fontColor=#999999;labelBackgroundColor=none;allowArrows=0;connectable=0;imageAspect=0;pointerEvents=0;deletable=0;" vertex="1" parent="1">
          <mxGeometry x="1442" y="874.5" width="30" height="30" as="geometry" />
        </mxCell>
        <mxCell id="0Ns2KySrUpd4GxgdJG7j-361" value="clk" style="text;html=1;align=center;verticalAlign=middle;resizable=0;points=[];autosize=1;strokeColor=none;fillColor=none;fontFamily=Helvetica;fontSize=12;fontColor=default;" vertex="1" parent="1">
          <mxGeometry x="1520" y="862" width="40" height="30" as="geometry" />
        </mxCell>
        <mxCell id="0Ns2KySrUpd4GxgdJG7j-362" style="edgeStyle=orthogonalEdgeStyle;shape=connector;rounded=0;orthogonalLoop=1;jettySize=auto;html=1;strokeColor=default;align=center;verticalAlign=middle;fontFamily=Helvetica;fontSize=12;fontColor=default;labelBackgroundColor=none;autosize=1;resizable=1;endArrow=classic;endSize=4;" edge="1" parent="1">
          <mxGeometry relative="1" as="geometry">
            <mxPoint x="1470" y="690" as="targetPoint" />
            <mxPoint x="1080" y="630" as="sourcePoint" />
            <Array as="points">
              <mxPoint x="1080" y="630" />
              <mxPoint x="1470" y="630" />
            </Array>
          </mxGeometry>
        </mxCell>
        <mxCell id="0Ns2KySrUpd4GxgdJG7j-364" value="" style="ellipse;whiteSpace=wrap;html=1;aspect=fixed;fontFamily=Helvetica;fontSize=11;fontColor=default;labelBackgroundColor=default;fillColor=#000000;strokeColor=none;align=center;verticalAlign=middle;" vertex="1" parent="1">
          <mxGeometry x="1098" y="628" width="4" height="4" as="geometry" />
        </mxCell>
        <mxCell id="0Ns2KySrUpd4GxgdJG7j-365" style="edgeStyle=orthogonalEdgeStyle;shape=connector;rounded=0;orthogonalLoop=1;jettySize=auto;html=1;entryX=1;entryY=0.5;entryDx=0;entryDy=0;strokeColor=default;align=center;verticalAlign=middle;fontFamily=Helvetica;fontSize=12;fontColor=default;labelBackgroundColor=none;autosize=1;resizable=1;endArrow=classic;endSize=4;" edge="1" parent="1">
          <mxGeometry relative="1" as="geometry">
            <mxPoint x="1035" y="950" as="sourcePoint" />
            <mxPoint x="1034.89" y="823" as="targetPoint" />
          </mxGeometry>
        </mxCell>
        <mxCell id="0Ns2KySrUpd4GxgdJG7j-367" style="edgeStyle=orthogonalEdgeStyle;shape=connector;rounded=0;orthogonalLoop=1;jettySize=auto;html=1;entryX=1;entryY=0.5;entryDx=0;entryDy=0;strokeColor=default;align=center;verticalAlign=middle;fontFamily=Helvetica;fontSize=12;fontColor=default;labelBackgroundColor=none;autosize=1;resizable=1;endArrow=classic;endSize=4;" edge="1" parent="1">
          <mxGeometry relative="1" as="geometry">
            <mxPoint x="1010" y="950" as="sourcePoint" />
            <mxPoint x="1404.89" y="823" as="targetPoint" />
            <Array as="points">
              <mxPoint x="1405" y="950" />
            </Array>
          </mxGeometry>
        </mxCell>
        <mxCell id="0Ns2KySrUpd4GxgdJG7j-368" value="" style="ellipse;whiteSpace=wrap;html=1;aspect=fixed;fontFamily=Helvetica;fontSize=11;fontColor=default;labelBackgroundColor=default;fillColor=#000000;strokeColor=none;align=center;verticalAlign=middle;" vertex="1" parent="1">
          <mxGeometry x="1003" y="658" width="4" height="4" as="geometry" />
        </mxCell>
        <mxCell id="0Ns2KySrUpd4GxgdJG7j-369" value="" style="endArrow=classic;html=1;rounded=0;strokeColor=#99004D;align=center;verticalAlign=middle;fontFamily=Helvetica;fontSize=11;fontColor=default;labelBackgroundColor=default;edgeStyle=orthogonalEdgeStyle;endSize=4;" edge="1" parent="1">
          <mxGeometry width="50" height="50" relative="1" as="geometry">
            <mxPoint x="1210" y="800" as="sourcePoint" />
            <mxPoint x="1020" y="790" as="targetPoint" />
            <Array as="points">
              <mxPoint x="1210" y="930" />
              <mxPoint x="890" y="930" />
              <mxPoint x="890" y="790" />
            </Array>
          </mxGeometry>
        </mxCell>
        <mxCell id="0Ns2KySrUpd4GxgdJG7j-370" value="" style="ellipse;whiteSpace=wrap;html=1;aspect=fixed;fontFamily=Helvetica;fontSize=11;fontColor=default;labelBackgroundColor=default;fillColor=#99004D;strokeColor=none;align=center;verticalAlign=middle;" vertex="1" parent="1">
          <mxGeometry x="1208" y="798" width="4" height="4" as="geometry" />
        </mxCell>
        <mxCell id="0Ns2KySrUpd4GxgdJG7j-373" value="" style="ellipse;whiteSpace=wrap;html=1;aspect=fixed;fontFamily=Helvetica;fontSize=11;fontColor=default;labelBackgroundColor=default;fillColor=#99004D;strokeColor=none;align=center;verticalAlign=middle;" vertex="1" parent="1">
          <mxGeometry x="888" y="808" width="4" height="4" as="geometry" />
        </mxCell>
        <mxCell id="0Ns2KySrUpd4GxgdJG7j-374" value="" style="ellipse;whiteSpace=wrap;html=1;aspect=fixed;fontFamily=Helvetica;fontSize=11;fontColor=default;labelBackgroundColor=default;fillColor=#99004D;strokeColor=none;align=center;verticalAlign=middle;" vertex="1" parent="1">
          <mxGeometry x="888" y="827" width="4" height="4" as="geometry" />
        </mxCell>
        <mxCell id="0Ns2KySrUpd4GxgdJG7j-375" value="" style="ellipse;whiteSpace=wrap;html=1;aspect=fixed;fontFamily=Helvetica;fontSize=11;fontColor=default;labelBackgroundColor=default;fillColor=#99004D;strokeColor=none;align=center;verticalAlign=middle;" vertex="1" parent="1">
          <mxGeometry x="888" y="868" width="4" height="4" as="geometry" />
        </mxCell>
        <mxCell id="0Ns2KySrUpd4GxgdJG7j-376" value="" style="ellipse;whiteSpace=wrap;html=1;aspect=fixed;fontFamily=Helvetica;fontSize=11;fontColor=default;labelBackgroundColor=default;fillColor=#99004D;strokeColor=none;align=center;verticalAlign=middle;" vertex="1" parent="1">
          <mxGeometry x="1058" y="888" width="4" height="4" as="geometry" />
        </mxCell>
        <mxCell id="0Ns2KySrUpd4GxgdJG7j-377" value="" style="ellipse;whiteSpace=wrap;html=1;aspect=fixed;fontFamily=Helvetica;fontSize=11;fontColor=default;labelBackgroundColor=default;fillColor=#99004D;strokeColor=none;align=center;verticalAlign=middle;" vertex="1" parent="1">
          <mxGeometry x="1058" y="928" width="4" height="4" as="geometry" />
        </mxCell>
        <mxCell id="0Ns2KySrUpd4GxgdJG7j-378" style="edgeStyle=orthogonalEdgeStyle;shape=connector;rounded=0;orthogonalLoop=1;jettySize=auto;html=1;exitX=0.5;exitY=0;exitDx=0;exitDy=0;strokeColor=#4C0099;align=center;verticalAlign=middle;fontFamily=Helvetica;fontSize=11;fontColor=default;labelBackgroundColor=default;endArrow=classic;endSize=4;autosize=1;resizable=1;" edge="1" parent="1">
          <mxGeometry relative="1" as="geometry">
            <mxPoint x="910" y="840" as="targetPoint" />
            <mxPoint x="1570" y="800.5" as="sourcePoint" />
            <Array as="points">
              <mxPoint x="1580" y="801" />
              <mxPoint x="1580" y="940" />
              <mxPoint x="880" y="940" />
              <mxPoint x="880" y="840" />
            </Array>
          </mxGeometry>
        </mxCell>
        <mxCell id="0Ns2KySrUpd4GxgdJG7j-379" value="" style="ellipse;whiteSpace=wrap;html=1;aspect=fixed;fontFamily=Helvetica;fontSize=11;fontColor=default;labelBackgroundColor=default;fillColor=#4C0099;strokeColor=none;align=center;verticalAlign=middle;" vertex="1" parent="1">
          <mxGeometry x="878" y="878" width="4" height="4" as="geometry" />
        </mxCell>
        <mxCell id="0Ns2KySrUpd4GxgdJG7j-380" value="" style="ellipse;whiteSpace=wrap;html=1;aspect=fixed;fontFamily=Helvetica;fontSize=11;fontColor=default;labelBackgroundColor=default;fillColor=#4C0099;strokeColor=none;align=center;verticalAlign=middle;" vertex="1" parent="1">
          <mxGeometry x="1428" y="888" width="4" height="4" as="geometry" />
        </mxCell>
        <mxCell id="0Ns2KySrUpd4GxgdJG7j-381" value="" style="ellipse;whiteSpace=wrap;html=1;aspect=fixed;fontFamily=Helvetica;fontSize=11;fontColor=default;labelBackgroundColor=default;fillColor=#4C0099;strokeColor=none;align=center;verticalAlign=middle;" vertex="1" parent="1">
          <mxGeometry x="1428" y="938" width="4" height="4" as="geometry" />
        </mxCell>
        <mxCell id="0Ns2KySrUpd4GxgdJG7j-382" value="" style="ellipse;whiteSpace=wrap;html=1;aspect=fixed;fontFamily=Helvetica;fontSize=11;fontColor=default;labelBackgroundColor=default;fillColor=#99004D;strokeColor=none;align=center;verticalAlign=middle;" vertex="1" parent="1">
          <mxGeometry x="1208" y="868" width="4" height="4" as="geometry" />
        </mxCell>
        <mxCell id="0Ns2KySrUpd4GxgdJG7j-384" value="" style="ellipse;whiteSpace=wrap;html=1;aspect=fixed;fontFamily=Helvetica;fontSize=11;fontColor=default;labelBackgroundColor=default;fillColor=#4C0099;strokeColor=none;align=center;verticalAlign=middle;" vertex="1" parent="1">
          <mxGeometry x="1258" y="828" width="4" height="4" as="geometry" />
        </mxCell>
        <mxCell id="0Ns2KySrUpd4GxgdJG7j-385" value="" style="ellipse;whiteSpace=wrap;html=1;aspect=fixed;fontFamily=Helvetica;fontSize=11;fontColor=default;labelBackgroundColor=default;fillColor=#4C0099;strokeColor=none;align=center;verticalAlign=middle;fontStyle=1" vertex="1" parent="1">
          <mxGeometry x="1258" y="878" width="4" height="4" as="geometry" />
        </mxCell>
        <mxCell id="0Ns2KySrUpd4GxgdJG7j-386" value="" style="ellipse;whiteSpace=wrap;html=1;aspect=fixed;fontFamily=Helvetica;fontSize=11;fontColor=default;labelBackgroundColor=default;fillColor=#4C0099;strokeColor=none;align=center;verticalAlign=middle;" vertex="1" parent="1">
          <mxGeometry x="1258" y="807" width="4" height="4" as="geometry" />
        </mxCell>
        <mxCell id="0Ns2KySrUpd4GxgdJG7j-391" value="" style="ellipse;whiteSpace=wrap;html=1;aspect=fixed;fontFamily=Helvetica;fontSize=11;fontColor=default;labelBackgroundColor=default;fillColor=#000000;strokeColor=none;align=center;verticalAlign=middle;" vertex="1" parent="1">
          <mxGeometry x="1033" y="948" width="4" height="4" as="geometry" />
        </mxCell>
      </root>
    </mxGraphModel>
  </diagram>
</mxfile>
